<svg width="24" height="24" viewBox="0 0 24 24" fill="none" xmlns="http://www.w3.org/2000/svg">
<path d="M2.20264 5.3793C2.38377 5.19766 2.6797 5.19767 2.86084 5.3793L9.09717 11.6332C9.2764 11.8129 9.2764 12.1039 9.09717 12.2836L2.86084 18.5375C2.7705 18.6281 2.65228 18.6732 2.53174 18.6732C2.4109 18.6732 2.2928 18.6279 2.20264 18.5375C2.02362 18.3579 2.02373 18.0678 2.20264 17.8881L8.11572 11.9584L2.20264 6.02871C2.02372 5.84908 2.0238 5.55898 2.20264 5.3793Z" fill="#231F20"/>
<path d="M8.37172 5.37908C8.55286 5.1979 8.84794 5.19768 9.02895 5.37908L15.2653 11.634C15.3517 11.7207 15.4 11.8373 15.4 11.9582C15.4 12.0792 15.3518 12.1966 15.2653 12.2834L9.02895 18.5373C8.93876 18.6277 8.82071 18.674 8.69984 18.674C8.57909 18.6739 8.46181 18.6276 8.37172 18.5373L8.31313 18.465C8.19545 18.2867 8.2149 18.0452 8.37172 17.8879L14.2848 11.9582L8.37172 6.02849C8.19253 5.84877 8.1925 5.55879 8.37172 5.37908Z" fill="#231F20"/>
<path d="M7.69887 17.5422C7.68713 17.5597 7.67638 17.5778 7.66567 17.5959C7.67496 17.5802 7.68392 17.5643 7.69399 17.549L7.69887 17.5422Z" fill="#231F20"/>
<path d="M15.9741 19.0665C15.9447 19.096 15.9139 19.1237 15.8823 19.1495L15.9741 19.0665Z" fill="#231F20"/>
<path d="M14.7935 5.37899C14.9746 5.19742 15.2706 5.19745 15.4517 5.37899L21.688 11.6339C21.7744 11.7206 21.8227 11.8373 21.8228 11.9581C21.8228 12.0791 21.7746 12.1965 21.688 12.2833L15.4517 18.5372C15.3615 18.6276 15.2434 18.6738 15.1226 18.6739C15.0018 18.6739 14.8836 18.6276 14.7935 18.5372L14.7349 18.4649C14.6175 18.2866 14.6368 18.0449 14.7935 17.8878L20.7075 11.9581L14.7935 6.02841C14.6147 5.84866 14.6144 5.55858 14.7935 5.37899Z" fill="#231F20"/>
<path d="M14.1216 17.5421C14.11 17.5595 14.1 17.5779 14.0894 17.5958C14.0986 17.5803 14.1067 17.5641 14.1167 17.5489L14.1216 17.5421Z" fill="#231F20"/>
<path d="M22.563 11.9581C22.563 12.0444 22.5536 12.1299 22.5357 12.213C22.5452 12.1686 22.5526 12.1237 22.5572 12.0782C22.5611 12.0386 22.563 11.9983 22.563 11.9581Z" fill="#231F20"/>
</svg>
