<svg width="24" height="24" viewBox="0 0 24 24" fill="none" xmlns="http://www.w3.org/2000/svg">
<path d="M22.0996 5.5C22.0996 4.61634 21.3837 3.90039 20.5 3.90039H3.5C2.61634 3.90039 1.90039 4.61634 1.90039 5.5V18.5C1.90039 19.3837 2.61634 20.0996 3.5 20.0996H20.5C21.3837 20.0996 22.0996 19.3837 22.0996 18.5V5.5ZM22.9004 18.5C22.9004 19.8255 21.8255 20.9004 20.5 20.9004H3.5C2.17452 20.9004 1.09961 19.8255 1.09961 18.5V5.5C1.09961 4.17452 2.17452 3.09961 3.5 3.09961H20.5C21.8255 3.09961 22.9004 4.17452 22.9004 5.5V18.5Z" fill="#231F20"/>
<path d="M19.0996 9C19.0996 8.66863 18.8314 8.40039 18.5 8.40039H5.5C5.16863 8.40039 4.90039 8.66863 4.90039 9V15C4.90039 15.3314 5.16863 15.5996 5.5 15.5996H18.5C18.8314 15.5996 19.0996 15.3314 19.0996 15V9ZM19.9004 15C19.9004 15.7732 19.2732 16.4004 18.5 16.4004H5.5C4.7268 16.4004 4.09961 15.7732 4.09961 15V9C4.09961 8.2268 4.7268 7.59961 5.5 7.59961H18.5C19.2732 7.59961 19.9004 8.2268 19.9004 9V15Z" fill="#231F20"/>
<path d="M8.24707 11.7529L10.2471 13.7529C10.3838 13.8896 10.3838 14.1104 10.2471 14.2471C10.1104 14.3838 9.88961 14.3838 9.75293 14.2471L8.01953 12.5137L5.26562 15.7275C5.13985 15.8743 4.91923 15.8913 4.77246 15.7656C4.62572 15.6399 4.60865 15.4192 4.73438 15.2725L7.98047 11.4854L8.24707 11.7529Z" fill="#231F20"/>
<path d="M16.7617 15.7676L16.2383 16.2324L12.5176 12.0469L9.27637 16.2148L8.72363 15.7852L12.2236 11.2852L12.4824 10.9531L16.7617 15.7676Z" fill="#231F20"/>
<path d="M16.7998 11C16.7998 10.5582 16.4418 10.2002 16 10.2002C15.5582 10.2002 15.2002 10.5582 15.2002 11C15.2002 11.4418 15.5582 11.7998 16 11.7998V12.5C15.1716 12.5 14.5 11.8284 14.5 11C14.5 10.1716 15.1716 9.5 16 9.5C16.8284 9.5 17.5 10.1716 17.5 11C17.5 11.8284 16.8284 12.5 16 12.5V11.7998C16.4418 11.7998 16.7998 11.4418 16.7998 11Z" fill="black"/>
</svg>
