<svg
   width="24"
   height="24"
   viewBox="0 0 24 24"
   version="1.1"
   xmlns="http://www.w3.org/2000/svg"
   xmlns:svg="http://www.w3.org/2000/svg">
  <path
     d="m 10.480469,2.4257813 c -1.326929,0 -2.40625,1.0992443 -2.40625,2.4335937 V 5.2402344 H 2.767578 c -1.018236,0 -1.847656,0.8459653 -1.847656,1.8671875 v 7.6777341 c 0,0.470513 0.313247,0.806281 0.601562,1.136719 a 0.5,0.5 0 0 0 0,0.002 v 3.783203 c 0,1.021197 0.829427,1.867188 1.847657,1.867188 h 17.136718 c 1.018274,0 1.847657,-0.846005 1.847657,-1.867188 V 16.1895 c 0.419429,-0.343806 0.726562,-0.822472 0.726562,-1.404297 V 7.1074219 c 0,-1.0212089 -0.827429,-1.8671875 -1.845703,-1.8671875 H 15.925781 V 4.859375 c 0,-1.3343556 -1.07938,-2.4335937 -2.40625,-2.4335937 z m 0,1 h 3.039062 c 0.778528,0 1.40625,0.6321114 1.40625,1.4335937 V 5.2402344 H 9.074219 V 4.859375 c 0,-0.8014885 0.627621,-1.4335937 1.40625,-1.4335937 z M 2.767578,6.2402344 h 5.806641 6.851562 5.808594 c 0.470124,0 0.845703,0.3787179 0.845703,0.8671875 v 7.6777341 c 0,0.341645 -0.18823,0.628969 -0.458984,0.771485 -0.116237,0.06116 -0.247648,0.0957 -0.388672,0.0957 h -6.882813 v -0.595703 c 0,-0.579394 -0.475897,-1.066407 -1.058593,-1.066407 h -2.582032 c -0.582696,0 -1.058593,0.487119 -1.058593,1.066407 v 0.595703 H 2.767578 c -0.174181,0 -0.332652,-0.05195 -0.466797,-0.142578 C 2.072693,15.355837 1.919922,15.092551 1.919922,14.785156 V 7.1074219 c 0,-0.4884564 0.377614,-0.8671875 0.847656,-0.8671875 z m 7.941406,8.7499996 h 2.582032 c 0.0337,0 0.05859,0.0206 0.05859,0.06641 v 2.195312 c 0,0.04599 -0.02478,0.06641 -0.05859,0.06641 h -2.582032 c -0.03381,0 -0.05859,-0.02031 -0.05859,-0.06641 V 16.17969 a 0.5,0.5 0 0 0 0.01172,-0.02734 0.5,0.5 0 0 0 -0.01172,-0.06055 v -1.035156 c 0,-0.04591 0.02489,-0.06641 0.05859,-0.06641 z m -8.1875,1.585938 c 0.08754,0.01292 0.155475,0.07617 0.246094,0.07617 h 6.882813 v 0.599609 c 0,0.579302 0.476005,1.066406 1.058593,1.066406 h 2.582032 c 0.582588,0 1.058593,-0.486997 1.058593,-1.066406 v -0.599609 h 6.882813 c 0.04336,0 0.07837,-0.02628 0.121094,-0.0293 v 3.083984 c 0,0.488416 -0.377532,0.867188 -0.847657,0.867188 H 3.369141 c -0.470029,0 -0.847657,-0.378786 -0.847657,-0.867188 z" fill="#231f20" />
</svg>
