<svg width="24" height="24" viewBox="0 0 24 24" fill="none" xmlns="http://www.w3.org/2000/svg">
<path d="M13.9214 16.1519H21.2333M21.2333 16.1519C21.4568 16.1519 21.6676 16.0966 21.8531 15.999M21.2333 16.1519H13.8677M21.8531 15.999V19.7079C21.8531 20.4627 21.2499 21.0746 20.5057 21.0746H3.3685C2.62437 21.0746 2.02114 20.4627 2.02114 19.7079V15.9237M21.8531 15.999C22.2855 15.7714 22.5809 15.3133 22.5809 14.7852V7.10729C22.5809 6.35245 21.9777 5.74055 21.2335 5.74055H2.76674C2.0226 5.74055 1.41937 6.35245 1.41937 7.10729V14.7852C1.41937 15.2603 1.6584 15.6789 2.02114 15.9237M2.02114 15.9237C2.23458 16.0679 2.49101 16.1519 2.76674 16.1519M2.76674 16.1519H10.1531M2.76674 16.1519H10.1621M15.4266 5.74076H8.57344V4.85916C8.57344 3.79124 9.42702 2.92538 10.4798 2.92538H13.5203C14.573 2.92538 15.4266 3.79124 15.4266 4.85916V5.74076ZM10.7083 14.4912H13.2919C13.6001 14.4912 13.8503 14.745 13.8503 15.0576V17.2517C13.8503 17.5644 13.6001 17.8181 13.2919 17.8181H10.7083C10.4001 17.8181 10.15 17.5644 10.15 17.2517V15.0576C10.15 14.745 10.4001 14.4912 10.7083 14.4912Z" stroke="#231F20" stroke-linecap="round" stroke-linejoin="round"/>
</svg>
