<svg width="24" height="24" viewBox="0 0 24 24" fill="none" xmlns="http://www.w3.org/2000/svg">
<path d="M19.5 12.0247C19.5 14.6334 19.5 17.2415 19.5 19.8502C19.5 21.4338 18.4392 22.4996 16.8612 22.4996C13.62 22.5002 10.3788 22.5002 7.13756 22.4996C5.57018 22.499 4.50063 21.4338 4.5 19.8715C4.5 14.6234 4.5 9.37524 4.5 4.12649C4.50063 2.57353 5.5683 1.50211 7.11564 1.50149C10.3725 1.50024 13.6294 1.50024 16.8862 1.50149C18.4317 1.50211 19.4987 2.57541 19.4994 4.12899C19.5006 6.76088 19.5 9.39277 19.5 12.0247ZM5.49628 11.9883C5.49628 14.6052 5.49628 17.2221 5.49628 19.8389C5.49628 20.8828 6.11434 21.5033 7.15446 21.5033C10.3806 21.504 13.6068 21.504 16.833 21.5033C17.8894 21.5033 18.5031 20.8872 18.5031 19.827C18.5031 14.609 18.5031 9.39089 18.5031 4.17283C18.5031 3.11268 17.8894 2.49714 16.833 2.49651C13.6143 2.49651 10.3963 2.49651 7.17763 2.49651C6.10558 2.49651 5.49566 3.1083 5.49566 4.1841C5.49566 6.7853 5.49628 9.38714 5.49628 11.9883Z" fill="#231F20"/>
<path d="M12.0006 9.00052C10.5478 9.00052 9.09506 9.00052 7.64227 9.00052C7.17137 9.00052 6.99666 8.82456 6.99666 8.34678C6.99603 7.11255 6.99541 5.87832 6.99666 4.64472C6.99666 4.17508 7.17701 3.99724 7.65229 3.99724C10.5503 3.99661 13.4478 3.99661 16.3458 3.99724C16.8311 3.99724 17.0033 4.1732 17.0033 4.66664C17.004 5.88521 17.0033 7.10378 17.0033 8.32173C17.0033 8.83959 16.8386 9.00052 16.312 9.00052C14.8749 9.00052 13.4378 9.00052 12.0006 9.00052ZM12.0132 5.00416C10.7489 5.00416 9.48393 5.00604 8.21963 5.00165C8.06809 5.00165 7.99858 5.0267 8.00046 5.20203C8.00923 6.06806 8.0086 6.93471 8.00046 7.80136C7.99921 7.97106 8.05995 8.00738 8.21712 8.00738C10.7382 8.003 13.2593 8.00237 15.781 8.00863C15.9632 8.00863 16.0014 7.94852 15.9995 7.78007C15.992 6.93722 15.9876 6.09373 16.002 5.2515C16.0058 5.03296 15.9307 4.99915 15.7365 5.0004C14.4954 5.00854 13.2543 5.00416 12.0132 5.00416Z" fill="#231F20"/>
<path d="M7.9823 12.5003C7.81824 12.5003 7.65354 12.511 7.49073 12.4984C7.20143 12.4759 7.00042 12.2636 7.00042 11.9994C7.00042 11.7357 7.20331 11.5159 7.49198 11.5034C7.83452 11.4884 8.17893 11.4878 8.52146 11.5047C8.80137 11.5184 8.99236 11.7307 8.998 11.9893C9.00363 12.2567 8.80951 12.4728 8.52021 12.4972C8.34236 12.5122 8.16139 12.4997 7.9823 12.5003Z" fill="#231F20"/>
<path d="M16.0071 11.499C16.1711 11.499 16.3352 11.4896 16.4986 11.5009C16.7911 11.5209 16.9933 11.7251 16.999 11.9906C17.0052 12.263 16.7973 12.4865 16.4942 12.4991C16.1592 12.5128 15.823 12.5135 15.4879 12.4972C15.1955 12.4828 15.0001 12.2661 15.0014 11.9981C15.0026 11.7295 15.1993 11.5235 15.4923 11.5015C15.6633 11.489 15.8355 11.499 16.0071 11.499Z" fill="#231F20"/>
<path d="M11.9919 12.5016C11.8284 12.5016 11.6637 12.511 11.5009 12.4997C11.1941 12.4778 11.0012 12.2705 11.0075 11.9862C11.0137 11.7151 11.2072 11.5134 11.5053 11.5015C11.8322 11.4884 12.1603 11.4884 12.4872 11.5015C12.7972 11.5134 12.9938 11.7201 12.9925 12.0031C12.9913 12.2855 12.7946 12.4834 12.4828 12.5016C12.3194 12.511 12.1553 12.5034 11.9919 12.5034V12.5016Z" fill="#231F20"/>
<path d="M11.9969 15.9913C11.8178 15.9913 11.6374 16.0007 11.459 15.9888C11.1941 15.9707 11.0137 15.7728 11.0075 15.5136C11.0012 15.2474 11.1853 15.0195 11.454 15.007C11.8197 14.9907 12.1872 14.9901 12.5529 15.0076C12.8216 15.0207 13.0013 15.2518 12.9925 15.5192C12.9838 15.7778 12.8022 15.9719 12.5348 15.9888C12.3563 16.0001 12.1766 15.9913 11.9969 15.9913Z" fill="#231F20"/>
<path d="M11.9894 19.4993C11.8334 19.4993 11.6775 19.5037 11.5216 19.4986C11.2172 19.4886 11.01 19.2882 11.0068 19.0071C11.0031 18.7197 11.1997 18.5155 11.5072 18.5074C11.8347 18.4986 12.1622 18.4992 12.4897 18.5074C12.7984 18.5149 12.9957 18.7178 12.9932 19.0046C12.9906 19.287 12.7859 19.488 12.4809 19.4986C12.3175 19.5043 12.1528 19.4993 11.9894 19.4993Z" fill="#231F20"/>
<path d="M7.99482 15.9926C7.82324 15.9926 7.65104 16.0007 7.48009 15.9913C7.20644 15.9763 7.00793 15.7715 7.00104 15.5117C6.99353 15.2543 7.1889 15.0189 7.45567 15.0076C7.82137 14.9919 8.18895 14.9913 8.55527 15.0088C8.81076 15.0214 8.99862 15.2505 8.99925 15.4991C8.99925 15.759 8.80325 15.9738 8.53336 15.9907C8.35489 16.002 8.17392 15.992 7.99482 15.9926Z" fill="#231F20"/>
<path d="M15.9914 15.9926C15.8198 15.9926 15.6476 16.0007 15.4767 15.9907C15.2036 15.9751 15.0064 15.769 15.002 15.5079C14.997 15.2405 15.2018 15.0138 15.4823 15.0038C15.8248 14.9919 16.1692 14.9926 16.5118 15.0038C16.7954 15.0126 17.0015 15.2343 16.9996 15.5017C16.9983 15.769 16.7923 15.9782 16.5061 15.992C16.3352 16.0001 16.163 15.9926 15.9914 15.9926Z" fill="#231F20"/>
<path d="M8.00672 18.5068C8.1783 18.5068 8.35051 18.4992 8.52146 18.5086C8.79511 18.5237 8.99299 18.7291 8.99862 18.9889C9.00426 19.2469 8.81014 19.4811 8.54338 19.4924C8.17767 19.508 7.80947 19.5087 7.44377 19.4905C7.18828 19.478 7.00042 19.2482 7.00042 18.9996C7.00042 18.7416 7.19955 18.5262 7.46882 18.5099C7.64728 18.4992 7.82763 18.508 8.00672 18.508V18.5068Z" fill="#231F20"/>
<path d="M16.029 18.5068C16.193 18.5068 16.3571 18.4992 16.5205 18.5086C16.7948 18.5243 16.9921 18.7278 16.999 18.9889C17.0058 19.2563 16.8023 19.4849 16.5199 19.4949C16.1774 19.5074 15.8336 19.5062 15.4904 19.4961C15.208 19.4874 15.0014 19.267 15.0014 19.0002C15.0014 18.7309 15.2043 18.5212 15.4911 18.508C15.6702 18.4992 15.8499 18.5068 16.029 18.5068Z" fill="#231F20"/>
</svg>
