<svg width="24" height="24" viewBox="0 0 24 24" fill="none" xmlns="http://www.w3.org/2000/svg">
<path d="M5 17.5V18.5H4V17.5H5ZM6 16.5V7.5C6 6.94772 5.55228 6.5 5 6.5H4C3.44772 6.5 3 6.94772 3 7.5V16.5C3 17.0523 3.44772 17.5 4 17.5V18.5L3.7959 18.4893C2.85435 18.3938 2.1062 17.6457 2.01074 16.7041L2 16.5V7.5C2 6.39543 2.89543 5.5 4 5.5H5C6.10457 5.5 7 6.39543 7 7.5V16.5C7 17.5357 6.21278 18.387 5.2041 18.4893L5 18.5V17.5C5.55228 17.5 6 17.0523 6 16.5Z" fill="#231F20"/>
<path d="M14 21.5V22.5H10V21.5H14ZM15 20.5V3.5C15 2.94772 14.5523 2.5 14 2.5H10C9.44772 2.5 9 2.94772 9 3.5V20.5C9 21.0523 9.44772 21.5 10 21.5V22.5L9.7959 22.4893C8.85435 22.3938 8.1062 21.6457 8.01074 20.7041L8 20.5V3.5C8 2.39543 8.89543 1.5 10 1.5H14C15.1046 1.5 16 2.39543 16 3.5V20.5C16 21.5357 15.2128 22.387 14.2041 22.4893L14 22.5V21.5C14.5523 21.5 15 21.0523 15 20.5Z" fill="#231F20"/>
<path d="M20 18.5V19.5H19V18.5H20ZM21 17.5V7.5C21 6.94772 20.5523 6.5 20 6.5H19C18.4477 6.5 18 6.94772 18 7.5V17.5C18 18.0523 18.4477 18.5 19 18.5V19.5L18.7959 19.4893C17.8543 19.3938 17.1062 18.6457 17.0107 17.7041L17 17.5V7.5C17 6.39543 17.8954 5.5 19 5.5H20C21.1046 5.5 22 6.39543 22 7.5V17.5C22 18.5357 21.2128 19.387 20.2041 19.4893L20 19.5V18.5C20.5523 18.5 21 18.0523 21 17.5Z" fill="#231F20"/>
</svg>
