<svg width="24" height="24" viewBox="0 0 24 24" fill="none" xmlns="http://www.w3.org/2000/svg">
<path d="M6 21.5V22.5H4V21.5H6ZM7 20.5V3.5C7 2.94772 6.55228 2.5 6 2.5H4C3.44772 2.5 3 2.94772 3 3.5V20.5C3 21.0523 3.44772 21.5 4 21.5V22.5L3.7959 22.4893C2.85435 22.3938 2.1062 21.6457 2.01074 20.7041L2 20.5V3.5C2 2.39543 2.89543 1.5 4 1.5H6C7.10457 1.5 8 2.39543 8 3.5V20.5C8 21.5357 7.21278 22.387 6.2041 22.4893L6 22.5V21.5C6.55228 21.5 7 21.0523 7 20.5Z" fill="#231F20"/>
<path d="M13 21.5V22.5H11V21.5H13ZM14 20.5V3.5C14 2.94772 13.5523 2.5 13 2.5H11C10.4477 2.5 10 2.94772 10 3.5V20.5C10 21.0523 10.4477 21.5 11 21.5V22.5L10.7959 22.4893C9.85435 22.3938 9.1062 21.6457 9.01074 20.7041L9 20.5V3.5C9 2.39543 9.89543 1.5 11 1.5H13C14.1046 1.5 15 2.39543 15 3.5V20.5C15 21.5357 14.2128 22.387 13.2041 22.4893L13 22.5V21.5C13.5523 21.5 14 21.0523 14 20.5Z" fill="#231F20"/>
<path d="M20 21.5V22.5H18V21.5H20ZM21 20.5V3.5C21 2.94772 20.5523 2.5 20 2.5H18C17.4477 2.5 17 2.94772 17 3.5V20.5C17 21.0523 17.4477 21.5 18 21.5V22.5L17.7959 22.4893C16.8543 22.3938 16.1062 21.6457 16.0107 20.7041L16 20.5V3.5C16 2.39543 16.8954 1.5 18 1.5H20C21.1046 1.5 22 2.39543 22 3.5V20.5C22 21.5357 21.2128 22.387 20.2041 22.4893L20 22.5V21.5C20.5523 21.5 21 21.0523 21 20.5Z" fill="#231F20"/>
</svg>
