<svg width="24" height="24" viewBox="0 0 24 24" fill="none" xmlns="http://www.w3.org/2000/svg">
<path d="M21.9346 14.693C22.2538 14.6932 22.5 14.9388 22.5 15.2262V18.2321C22.5 20.027 20.9685 21.4994 19.0703 21.4997H4.92969C3.03145 21.4994 1.50003 20.027 1.5 18.2321V15.2262C1.5 14.9388 1.74619 14.6932 2.06543 14.693C2.38459 14.6932 2.63184 14.9388 2.63184 15.2262V18.2321C2.63186 19.4531 3.66896 20.434 4.92969 20.4342H19.0703C20.3309 20.4339 21.3681 19.453 21.3682 18.2321V15.2262C21.3682 14.9388 21.6153 14.6931 21.9346 14.693Z" fill="#231F20"/>
<path d="M11.9882 2.5C12.2889 2.50014 12.5468 2.76105 12.5468 3.10157V15.422L12.8105 15.1437L15.4619 12.3321C15.6796 12.1018 16.0284 12.1017 16.246 12.3321C16.4685 12.5679 16.4684 12.9537 16.246 13.1895L12.4042 17.2628C12.2941 17.3793 12.1521 17.4357 12.0117 17.4357H11.957L11.954 17.4347H11.9472C11.9415 17.4343 11.9375 17.434 11.9345 17.4337L11.9316 17.4327C11.928 17.4324 11.9285 17.4323 11.916 17.4308H11.9111C11.9111 17.4308 11.9073 17.4301 11.9052 17.4298L11.8857 17.4259H11.8828L11.8788 17.4249C11.8743 17.424 11.8698 17.4232 11.8652 17.422L11.8622 17.421L11.8583 17.42L11.8564 17.4191L11.8378 17.4142C11.835 17.4133 11.83 17.4122 11.83 17.4122L11.8281 17.4112C11.8241 17.41 11.8189 17.4083 11.8134 17.4064C11.8102 17.4052 11.8056 17.4034 11.8056 17.4034L11.8027 17.4025L11.788 17.3956C11.7859 17.3947 11.7822 17.3927 11.7822 17.3927C11.7797 17.3917 11.7753 17.3907 11.7753 17.3907L11.7607 17.3839C11.7584 17.3829 11.7544 17.3817 11.749 17.379L11.748 17.378L11.7392 17.3732C11.7354 17.3712 11.7311 17.3689 11.7265 17.3663L11.7255 17.3653C11.7255 17.3653 11.7214 17.363 11.7187 17.3614L11.7031 17.3517L11.6933 17.3468L11.6787 17.3351L11.6757 17.3331L11.6738 17.3321L11.6572 17.3194L11.6562 17.3185C11.6547 17.3172 11.652 17.3148 11.6494 17.3126L11.6376 17.3038C11.636 17.3023 11.6344 17.3004 11.6328 17.2989C11.6306 17.297 11.6271 17.295 11.6249 17.2931L11.5888 17.256L7.75384 13.1895C7.53144 12.9538 7.53149 12.5679 7.75384 12.3321C7.97155 12.1017 8.32033 12.1016 8.53802 12.3321L11.4296 15.3966V3.10157C11.4296 2.76096 11.6874 2.5 11.9882 2.5Z" fill="#231F20"/>
</svg>
