<svg width="24" height="24" viewBox="0 0 24 24" fill="none" xmlns="http://www.w3.org/2000/svg">
<path d="M4.55469 19.8389L4.5498 6.29102C4.54979 6.04254 4.75151 5.8409 5 5.84082C5.24846 5.84082 5.45012 6.04254 5.4502 6.29102L5.4541 19.8389C5.45425 20.4963 6.00481 21.0483 6.70898 21.0488L17.6777 20.9844C18.1714 20.9813 18.5498 20.594 18.5498 20.1416V4.16113C18.5497 3.50335 17.9986 2.9502 17.2939 2.9502H9.07227C8.82374 2.9502 8.62207 2.74853 8.62207 2.5C8.62207 2.25147 8.82374 2.04981 9.07227 2.04981H17.2939C18.4732 2.04981 19.4501 2.98416 19.4502 4.16113V20.1416C19.4502 21.0506 18.7464 21.7824 17.8623 21.875L17.6836 21.8848L6.71289 21.9502H6.70996C5.5307 21.9502 4.55483 21.0158 4.55469 19.8389Z" fill="#231F20"/>
<path d="M8.62143 3.53418L6.14584 5.8418H7.67221C8.20781 5.8418 8.62143 5.42099 8.62143 4.92774V3.53418ZM9.52182 4.92774C9.52182 5.94026 8.68236 6.74121 7.67221 6.74121H5.00424C4.81935 6.74121 4.65304 6.62809 4.5853 6.45606C4.51772 6.28409 4.56243 6.08791 4.6976 5.96192L8.76499 2.1709C8.89596 2.04882 9.08709 2.01559 9.25131 2.08692C9.41558 2.15836 9.52182 2.32087 9.52182 2.5V4.92774Z" fill="#231F20"/>
<path fill-rule="evenodd" clip-rule="evenodd" d="M9.79765 14.9353C9.7422 14.9353 9.69022 14.9111 9.64517 14.8667L7.57971 12.7654C7.53119 12.7129 7.5 12.6403 7.5 12.5637C7.5 12.4871 7.52772 12.4145 7.57624 12.362L9.62091 10.184C9.71448 10.0832 9.86349 10.0913 9.95013 10.2002C10.0368 10.3091 10.0298 10.4825 9.93627 10.5833L8.08568 12.5556L9.95707 14.4553C10.0541 14.5521 10.0645 14.7256 9.97786 14.8385C9.92587 14.903 9.8635 14.9353 9.79765 14.9353Z" fill="#231F20"/>
<path fill-rule="evenodd" clip-rule="evenodd" d="M14.2024 14.9353C14.1365 14.9353 14.0741 14.9031 14.0256 14.8426C13.939 14.7296 13.9494 14.5562 14.0464 14.4594L15.9143 12.5597L14.0637 10.5874C13.9702 10.4866 13.9632 10.3131 14.0499 10.2042C14.1365 10.0953 14.2855 10.0873 14.3791 10.1881L16.4238 12.3661C16.4723 12.4185 16.5 12.4911 16.5 12.5678C16.5 12.6444 16.4688 12.717 16.4203 12.7694L14.3583 14.8708C14.3132 14.9152 14.2578 14.9353 14.2024 14.9353Z" fill="#231F20"/>
<path fill-rule="evenodd" clip-rule="evenodd" d="M11.229 15.5C11.2047 15.5 11.177 15.496 11.1527 15.4839C11.0314 15.4355 10.9656 15.2822 11.0072 15.141L12.6013 9.68393C12.6429 9.54276 12.7746 9.46613 12.8959 9.51453C13.0172 9.56293 13.083 9.71619 13.0414 9.85736L11.4473 15.3145C11.4196 15.4274 11.326 15.5 11.229 15.5Z" fill="#231F20"/>
<path d="M12.4648 9.55664C12.5537 9.38243 12.7517 9.26806 12.9609 9.35157C13.1802 9.43909 13.2716 9.6948 13.209 9.90723L11.6152 15.3633C11.5679 15.5431 11.4114 15.6748 11.2285 15.6748C11.1905 15.6748 11.1399 15.6676 11.0879 15.6445V15.6465C11.0852 15.6454 11.0827 15.6437 11.0801 15.6426L11.0742 15.6406V15.6387C10.8654 15.546 10.7779 15.2995 10.8389 15.0918L12.4336 9.63477L12.4648 9.55664ZM12.8066 9.67969C12.7953 9.68623 12.7787 9.70247 12.7695 9.7334L11.1748 15.1904C11.1594 15.2428 11.1782 15.2849 11.1982 15.3066L11.2178 15.3213L11.2246 15.3242L11.2285 15.3252C11.2373 15.3252 11.2669 15.3148 11.2773 15.2725L11.2793 15.2656L12.873 9.8086L12.874 9.80762C12.8944 9.73792 12.8543 9.68603 12.8311 9.67676C12.8236 9.6738 12.8164 9.67413 12.8066 9.67969ZM9.49316 10.0645C9.66258 9.88253 9.9365 9.90212 10.0869 10.0908C10.2273 10.2672 10.2169 10.5378 10.0645 10.7022L10.0635 10.7031L8.32812 12.5527L10.0801 14.3311C10.2415 14.4921 10.2554 14.7652 10.1172 14.9453L10.1143 14.9482C10.0363 15.045 9.92709 15.1103 9.79785 15.1104C9.68753 15.1104 9.59329 15.061 9.52246 14.9912L9.52051 14.9893L7.45508 12.8877L7.45117 12.8838C7.37476 12.8011 7.3252 12.6867 7.3252 12.5635C7.32525 12.4456 7.36801 12.3299 7.44824 12.2432L9.49316 10.0645ZM16.3252 12.5674C16.3251 12.5322 16.3116 12.5034 16.2949 12.4854L14.252 10.3076L14.251 10.3066C14.2387 10.2935 14.2276 10.2916 14.2207 10.292C14.2133 10.2924 14.2 10.2966 14.1865 10.3135C14.1541 10.3547 14.1574 10.4304 14.1914 10.4678L16.042 12.4404L16.1572 12.5625L14.1709 14.582L14.1699 14.583C14.138 14.6149 14.1295 14.6875 14.1621 14.7334C14.1828 14.7591 14.1977 14.7607 14.2021 14.7607C14.2085 14.7607 14.214 14.7587 14.2188 14.7568C14.2234 14.755 14.2292 14.7521 14.2354 14.7461L16.2949 12.6465C16.3134 12.6247 16.3252 12.5956 16.3252 12.5674ZM16.6748 12.5674C16.6748 12.6908 16.6254 12.8059 16.5488 12.8887L16.5449 12.8916L14.4834 14.9932L14.4814 14.9951C14.4023 15.0731 14.3016 15.1104 14.2021 15.1104C14.0747 15.1103 13.9646 15.0468 13.8887 14.9522L13.8867 14.9492C13.7486 14.7691 13.7616 14.497 13.9229 14.3359L15.6709 12.5557L13.9365 10.707L13.9355 10.7061C13.7832 10.5417 13.7729 10.2721 13.9131 10.0957C14.0634 9.90674 14.3373 9.88642 14.5068 10.0684L16.5518 12.2461C16.632 12.3328 16.6747 12.4496 16.6748 12.5674ZM7.6748 12.5635C7.6748 12.5933 7.68758 12.6244 7.70801 12.6465L9.76758 14.7422L9.79004 14.7578C9.79398 14.7596 9.79785 14.7607 9.79785 14.7607C9.80114 14.7607 9.805 14.7597 9.81055 14.7568C9.81673 14.7535 9.82679 14.7454 9.83984 14.7295C9.87317 14.6836 9.86513 14.6111 9.83301 14.5791L9.83203 14.5781L7.84277 12.5586L9.80762 10.4639C9.84205 10.4267 9.84602 10.351 9.81348 10.3096C9.80004 10.2927 9.78671 10.2885 9.7793 10.2881C9.77234 10.2877 9.76132 10.2895 9.74902 10.3027L9.74805 10.3037L7.7041 12.4795L7.70508 12.4805C7.68837 12.4985 7.67486 12.5282 7.6748 12.5635Z" fill="#231F20"/>
</svg>
