<svg width="24" height="24" viewBox="0 0 24 24" fill="none" xmlns="http://www.w3.org/2000/svg">
<path fill-rule="evenodd" clip-rule="evenodd" d="M1.69338 18.2316C1.85187 19.1288 2.61459 19.8119 3.53579 19.8119H20.4642C21.3805 19.8119 22.1481 19.1288 22.3066 18.2316H1.69338ZM20.4642 20.5H3.53579C2.13913 20.5 1 19.3276 1 17.8901C1 17.7015 1.14858 17.5486 1.33183 17.5486H22.6682C22.8514 17.5486 23 17.7015 23 17.8901C23 19.3276 21.8609 20.5 20.4642 20.5Z" fill="#231F20"/>
<path d="M22.9004 17.8904C22.9004 17.7543 22.7933 17.6482 22.668 17.6482H1.33203C1.2067 17.6482 1.09961 17.7543 1.09961 17.8904C1.09975 19.2752 2.19748 20.4001 3.53613 20.4001H20.4639C21.8025 20.4001 22.9002 19.2752 22.9004 17.8904ZM22.4258 18.1316L22.4053 18.2488C22.2388 19.1909 21.4315 19.9119 20.4639 19.9119H3.53613C2.56343 19.9119 1.76112 19.1907 1.59473 18.2488L1.57422 18.1316H22.4258ZM1.81836 18.3318C2.01202 19.125 2.70702 19.7117 3.53613 19.7117H20.4639C21.2884 19.7117 21.9876 19.1249 22.1816 18.3318H1.81836ZM23.0996 17.8904C23.0995 19.3802 21.9184 20.6003 20.4639 20.6003H3.53613C2.08163 20.6003 0.900533 19.3802 0.900391 17.8904C0.900391 17.6493 1.09086 17.449 1.33203 17.449H22.668C22.9091 17.449 23.0996 17.6493 23.0996 17.8904Z" fill="#231F20"/>
<path fill-rule="evenodd" clip-rule="evenodd" d="M3.33769 17.5486H20.6623V5.01394C20.6623 4.55517 20.3008 4.18816 19.855 4.18816H4.14003C3.69428 4.18816 3.33273 4.56027 3.33273 5.01394L3.33769 17.5486ZM20.9941 18.2316H3.0009C2.81765 18.2316 2.66907 18.0787 2.66907 17.8901V5.01394C2.66907 4.17796 3.32778 3.5 4.14003 3.5H19.855C20.6673 3.5 21.326 4.17796 21.326 5.01394V17.8901C21.326 17.9819 21.2913 18.0685 21.2269 18.1348C21.1675 18.196 21.0833 18.2316 20.9941 18.2316Z" fill="#231F20"/>
<path d="M21.2257 5.01367C21.2256 4.23031 20.6088 3.59961 19.8546 3.59961H4.13977C3.38565 3.59975 2.76882 4.2304 2.76868 5.01367V17.8896C2.76868 18.0258 2.87577 18.1318 3.0011 18.1318H20.9943C21.0569 18.1318 21.1152 18.1068 21.1554 18.0654C21.2015 18.018 21.2257 17.9557 21.2257 17.8896V5.01367ZM20.5626 5.01367C20.5625 4.60834 20.2431 4.28809 19.8546 4.28809H4.13977C3.75176 4.28823 3.43288 4.61311 3.43274 5.01367L3.43762 17.4482H20.5626V5.01367ZM20.7618 17.6484H3.23743L3.23254 5.01367C3.23269 4.50731 3.6367 4.08803 4.13977 4.08789H19.8546C20.3574 4.08789 20.7617 4.50172 20.7618 5.01367V17.6484ZM21.4259 17.8896C21.4259 18.007 21.3814 18.119 21.299 18.2041C21.2203 18.285 21.1098 18.332 20.9943 18.332H3.0011C2.75992 18.332 2.56946 18.1307 2.56946 17.8896V5.01367C2.5696 4.12541 3.26981 3.40053 4.13977 3.40039H19.8546C20.7247 3.40039 21.4258 4.12532 21.4259 5.01367V17.8896Z" fill="#231F20"/>
<path fill-rule="evenodd" clip-rule="evenodd" d="M8.85006 13.8784C8.77082 13.8784 8.69653 13.8478 8.63214 13.7917L5.68032 11.136C5.61098 11.0697 5.56641 10.9779 5.56641 10.8811C5.56641 10.7842 5.60603 10.6925 5.67537 10.6262L8.59747 7.87359C8.7312 7.74616 8.94416 7.75635 9.06798 7.89398C9.1918 8.03161 9.18189 8.2508 9.04817 8.37824L6.40342 10.8709L9.07789 13.2718C9.21656 13.3941 9.23142 13.6133 9.1076 13.7561C9.03331 13.8376 8.94416 13.8784 8.85006 13.8784Z" fill="#231F20"/>
<path d="M8.5293 7.80066C8.70472 7.63422 8.98209 7.64863 9.14258 7.82703C9.30298 8.00541 9.28954 8.2868 9.11719 8.45105L6.55078 10.868L9.14453 13.1971L9.2041 13.2616C9.32615 13.4245 9.32268 13.6604 9.18359 13.8212L9.18164 13.8231C9.0908 13.9229 8.97522 13.9784 8.84961 13.9784C8.74319 13.9783 8.6463 13.9366 8.56641 13.8671L8.56543 13.8661L5.61328 11.2098L5.61133 11.2079C5.525 11.1253 5.4668 11.0083 5.4668 10.8807C5.46689 10.7566 5.51755 10.6385 5.60645 10.5536L8.5293 7.80066ZM5.66602 10.8807C5.66602 10.9458 5.69622 11.0117 5.74707 11.0614L8.69824 13.7167L8.77246 13.7635C8.79785 13.7737 8.82376 13.7781 8.84961 13.7782C8.91219 13.7782 8.97548 13.7517 9.0332 13.6884C9.11976 13.5866 9.10817 13.4316 9.01172 13.3466L6.33691 10.9452L6.25586 10.8729L6.33496 10.7977L8.97949 8.30554L9.01074 8.26941C9.07467 8.17723 9.0695 8.04566 8.99316 7.96082C8.91698 7.87638 8.79429 7.86134 8.70312 7.91785L8.66602 7.94617L5.74414 10.6991L5.74316 10.6981C5.69385 10.7455 5.66611 10.8117 5.66602 10.8807Z" fill="#231F20"/>
<path fill-rule="evenodd" clip-rule="evenodd" d="M15.145 13.8784C15.0509 13.8784 14.9617 13.8376 14.8924 13.7612C14.7686 13.6185 14.7834 13.3993 14.9221 13.2769L17.5916 10.876L14.9469 8.38337C14.8131 8.25593 14.8032 8.03674 14.9271 7.89911C15.0509 7.76148 15.2638 7.75128 15.3976 7.87872L18.3197 10.6313C18.389 10.6976 18.4286 10.7894 18.4286 10.8862C18.4286 10.9831 18.3841 11.0748 18.3147 11.1411L15.3679 13.7969C15.3035 13.8529 15.2242 13.8784 15.145 13.8784Z" fill="#231F20"/>
<path d="M18.3286 10.8859C18.3285 10.8169 18.3006 10.7516 18.2515 10.7042L15.3286 7.95129C15.2366 7.86358 15.0884 7.86936 15.0015 7.96594C14.9143 8.06282 14.9211 8.22007 15.0161 8.31067L17.6606 10.8029L17.7388 10.8781L17.6587 10.9503L14.9888 13.3517C14.8919 13.4373 14.8801 13.5938 14.9683 13.6954C15.02 13.7519 15.0819 13.7784 15.145 13.7784C15.2026 13.7784 15.258 13.7603 15.3022 13.7218L18.2476 11.0665C18.2985 11.0168 18.3286 10.951 18.3286 10.8859ZM18.5288 10.8859C18.5288 11.0133 18.4704 11.1305 18.3843 11.213L18.3813 11.215L15.4351 13.8712L15.4331 13.8722C15.3487 13.9456 15.2457 13.9786 15.145 13.9786C15.0204 13.9786 14.9046 13.9239 14.8179 13.8282L14.8169 13.8263C14.6579 13.6428 14.6754 13.3614 14.855 13.2023L17.4438 10.8741L14.8784 8.45618C14.7061 8.29189 14.6926 8.01053 14.853 7.83215C15.0135 7.65402 15.29 7.63963 15.4653 7.80579L18.3882 10.5587C18.4771 10.6437 18.5287 10.7617 18.5288 10.8859Z" fill="#231F20"/>
<path fill-rule="evenodd" clip-rule="evenodd" d="M10.8956 14.5921C10.8609 14.5921 10.8213 14.587 10.7866 14.5717C10.6133 14.5105 10.5192 14.3168 10.5786 14.1384L12.8569 7.24154C12.9163 7.06313 13.1045 6.96628 13.2779 7.02745C13.4512 7.08862 13.5453 7.28232 13.4859 7.46073L11.2076 14.3576C11.168 14.5003 11.0343 14.5921 10.8956 14.5921Z" fill="#231F20"/>
<path d="M12.7981 7.12921C12.8988 6.95268 13.1104 6.86243 13.3108 6.93292C13.5364 7.01254 13.6562 7.26259 13.5803 7.49152L13.5813 7.49249L11.303 14.389L11.302 14.388C11.2482 14.5746 11.075 14.6916 10.8958 14.6917C10.8546 14.6917 10.8029 14.6858 10.7532 14.6653C10.7512 14.6647 10.7492 14.6641 10.7473 14.6634L10.7463 14.6624C10.5253 14.5799 10.4082 14.3333 10.4836 14.1068L12.762 7.21027L12.7981 7.12921ZM13.2444 7.1214C13.1269 7.08013 12.9943 7.14459 12.9514 7.27277L10.6731 14.1702C10.636 14.282 10.684 14.4009 10.7776 14.4573L10.8196 14.4778L10.8274 14.4798C10.845 14.4875 10.8695 14.4925 10.8958 14.4925C10.9925 14.4924 11.0848 14.4269 11.1116 14.3304L11.1125 14.3265L13.3909 7.42902C13.4334 7.3013 13.3652 7.16404 13.2444 7.1214Z" fill="#231F20"/>
</svg>
