<svg width="24" height="24" viewBox="0 0 24 24" fill="none" xmlns="http://www.w3.org/2000/svg">
<path d="M18 22V23H6V22H18ZM19 21V3C19 2.44772 18.5523 2 18 2H6C5.44771 2 5 2.44772 5 3V21C5 21.5523 5.44772 22 6 22V23C4.96435 23 4.113 22.2128 4.01074 21.2041L4 21V3C4 1.89543 4.89543 1 6 1H18C19.1046 1 20 1.89543 20 3V21C20 22.1046 19.1046 23 18 23V22C18.5523 22 19 21.5523 19 21Z" fill="#231F20"/>
<path d="M6.5 19.5C6.5 19.2239 6.72386 19 7 19H17C17.2761 19 17.5 19.2239 17.5 19.5C17.5 19.7761 17.2761 20 17 20H7C6.72386 20 6.5 19.7761 6.5 19.5Z" fill="#231F20"/>
</svg>
