<svg width="24" height="24" viewBox="0 0 24 24" fill="none" xmlns="http://www.w3.org/2000/svg">
<path d="M9.5 10.5V11.5H4.5V10.5H9.5ZM10.5 9.5V4.5C10.5 3.94772 10.0523 3.5 9.5 3.5H4.5C3.94772 3.5 3.5 3.94772 3.5 4.5V9.5C3.5 10.0523 3.94772 10.5 4.5 10.5V11.5L4.2959 11.4893C3.35435 11.3938 2.6062 10.6457 2.51074 9.7041L2.5 9.5V4.5C2.5 3.39543 3.39543 2.5 4.5 2.5H9.5C10.6046 2.5 11.5 3.39543 11.5 4.5V9.5C11.5 10.5357 10.7128 11.387 9.7041 11.4893L9.5 11.5V10.5C10.0523 10.5 10.5 10.0523 10.5 9.5Z" fill="#231F20"/>
<path d="M9.5 20.5V21.5H4.5V20.5H9.5ZM10.5 19.5V14.5C10.5 13.9477 10.0523 13.5 9.5 13.5H4.5C3.94772 13.5 3.5 13.9477 3.5 14.5V19.5C3.5 20.0523 3.94772 20.5 4.5 20.5V21.5L4.2959 21.4893C3.35435 21.3938 2.6062 20.6457 2.51074 19.7041L2.5 19.5V14.5C2.5 13.3954 3.39543 12.5 4.5 12.5H9.5C10.6046 12.5 11.5 13.3954 11.5 14.5V19.5C11.5 20.5357 10.7128 21.387 9.7041 21.4893L9.5 21.5V20.5C10.0523 20.5 10.5 20.0523 10.5 19.5Z" fill="#231F20"/>
<path d="M19.5 20.5V21.5H14.5V20.5H19.5ZM20.5 19.5V14.5C20.5 13.9477 20.0523 13.5 19.5 13.5H14.5C13.9477 13.5 13.5 13.9477 13.5 14.5V19.5C13.5 20.0523 13.9477 20.5 14.5 20.5V21.5L14.2959 21.4893C13.3543 21.3938 12.6062 20.6457 12.5107 19.7041L12.5 19.5V14.5C12.5 13.3954 13.3954 12.5 14.5 12.5H19.5C20.6046 12.5 21.5 13.3954 21.5 14.5V19.5C21.5 20.5357 20.7128 21.387 19.7041 21.4893L19.5 21.5V20.5C20.0523 20.5 20.5 20.0523 20.5 19.5Z" fill="#231F20"/>
<path d="M19.5 10.5V11.5H14.5V10.5H19.5ZM20.5 9.5V4.5C20.5 3.94772 20.0523 3.5 19.5 3.5H14.5C13.9477 3.5 13.5 3.94772 13.5 4.5V9.5C13.5 10.0523 13.9477 10.5 14.5 10.5V11.5L14.2959 11.4893C13.3543 11.3938 12.6062 10.6457 12.5107 9.7041L12.5 9.5V4.5C12.5 3.39543 13.3954 2.5 14.5 2.5H19.5C20.6046 2.5 21.5 3.39543 21.5 4.5V9.5C21.5 10.5357 20.7128 11.387 19.7041 11.4893L19.5 11.5V10.5C20.0523 10.5 20.5 10.0523 20.5 9.5Z" fill="#231F20"/>
</svg>
