<svg width="24" height="24" viewBox="0 0 24 24" fill="none" xmlns="http://www.w3.org/2000/svg">
<path d="M9.90674 11H8.73674V8.08H5.26674V11H4.09674V4.33H5.26674V7.05H8.73674V4.33H9.90674V11Z" fill="#231F20"/>
<path d="M4 13.5C4 13.2239 4.22386 13 4.5 13H19.5C19.7761 13 20 13.2239 20 13.5C20 13.7761 19.7761 14 19.5 14H4.5C4.22386 14 4 13.7761 4 13.5Z" fill="#231F20"/>
<path d="M14 10.5C14 10.2239 14.2239 10 14.5 10H19.5C19.7761 10 20 10.2239 20 10.5C20 10.7761 19.7761 11 19.5 11H14.5C14.2239 11 14 10.7761 14 10.5Z" fill="#231F20"/>
<path d="M14 7.5C14 7.22386 14.2239 7 14.5 7H19.5C19.7761 7 20 7.22386 20 7.5C20 7.77614 19.7761 8 19.5 8H14.5C14.2239 8 14 7.77614 14 7.5Z" fill="#231F20"/>
<path d="M14 4.5C14 4.22386 14.2239 4 14.5 4H19.5C19.7761 4 20 4.22386 20 4.5C20 4.77614 19.7761 5 19.5 5H14.5C14.2239 5 14 4.77614 14 4.5Z" fill="#231F20"/>
<path d="M4 16.5C4 16.2239 4.22386 16 4.5 16H19.5C19.7761 16 20 16.2239 20 16.5C20 16.7761 19.7761 17 19.5 17H4.5C4.22386 17 4 16.7761 4 16.5Z" fill="#231F20"/>
<path d="M4 19.5C4 19.2239 4.22386 19 4.5 19H19.5C19.7761 19 20 19.2239 20 19.5C20 19.7761 19.7761 20 19.5 20H4.5C4.22386 20 4 19.7761 4 19.5Z" fill="#231F20"/>
</svg>
