<svg width="24" height="24" viewBox="0 0 24 24" fill="none" xmlns="http://www.w3.org/2000/svg">
<path d="M14.891 13C14.7843 13 14.6771 12.9742 14.5782 12.9217L11.75 11.427L8.92183 12.9217C8.69478 13.0418 8.42473 13.0226 8.21696 12.8717C8.00919 12.7208 7.90741 12.4699 7.95137 12.217L8.49923 9.06599L6.20341 6.83826C6.01914 6.65943 5.95381 6.39671 6.03325 6.15255C6.11269 5.9084 6.31975 5.73403 6.57406 5.69784L9.74092 5.24501L11.1502 2.37364C11.2632 2.14311 11.4931 2 11.75 2C12.0069 2 12.2365 2.14311 12.3498 2.37364L13.7591 5.24501L16.9259 5.69784C17.1802 5.73427 17.3873 5.9084 17.4668 6.15255C17.5462 6.39671 17.4809 6.65943 17.2966 6.83826L15.0008 9.06552L15.5486 12.2165C15.5926 12.4696 15.4908 12.7204 15.283 12.8712C15.166 12.9563 15.029 13 14.891 13ZM11.75 2.46999C11.7129 2.46999 11.6212 2.48079 11.5723 2.58067L10.0535 5.67505L6.64081 6.16289C6.53058 6.17864 6.49204 6.26229 6.48052 6.29778C6.469 6.33303 6.45114 6.4235 6.53105 6.50105L9.00526 8.9015L8.41486 12.2974C8.39582 12.4071 8.46351 12.4696 8.49359 12.4915C8.52368 12.5133 8.60406 12.5584 8.70254 12.5063L11.7502 10.8954L14.7979 12.5063C14.8964 12.5582 14.9768 12.5133 15.0069 12.4915C15.037 12.4696 15.1047 12.4071 15.0856 12.2974L14.4952 8.9015L16.9694 6.50105C17.0493 6.4235 17.0312 6.33303 17.02 6.29778C17.0084 6.26253 16.9699 6.17864 16.8597 6.16289L13.447 5.67505L11.9277 2.58067C11.8786 2.48079 11.7871 2.46999 11.75 2.46999Z" fill="#231F20"/>
<path d="M11.75 1.75C12.0582 1.75 12.3393 1.90094 12.5088 2.15039L12.5742 2.26367L13.9248 5.01562L16.9609 5.4502C17.3095 5.50012 17.5951 5.74043 17.7041 6.0752C17.8131 6.41023 17.7233 6.77245 17.4707 7.01758L15.2695 9.15234L15.7949 12.1738C15.8552 12.5209 15.7146 12.8664 15.4297 13.0732C15.3408 13.1378 15.2426 13.1828 15.1406 13.2119V13.25H14.8906C14.7434 13.2499 14.596 13.2141 14.4609 13.1426L11.75 11.71L9.03906 13.1426C8.72775 13.3072 8.35514 13.2809 8.07031 13.0742C7.78536 12.8673 7.64479 12.5207 7.70508 12.1738L8.22949 9.15234L6.0293 7.01758C5.77674 6.77245 5.68689 6.41023 5.7959 6.0752C5.90482 5.74059 6.19015 5.49985 6.53906 5.4502L9.57422 5.01562L10.9258 2.26367C11.0809 1.94736 11.3979 1.75 11.75 1.75ZM10.2783 5.78516L10.2197 5.9043L6.78027 6.39453L9.17969 8.72168L9.27441 8.81445L9.25195 8.94434L8.67871 12.2354L11.6338 10.6748L11.75 10.6123L11.8672 10.6748L14.8203 12.2344L14.2266 8.81445L14.3213 8.72168L16.7188 6.39453L13.2812 5.9043L11.75 2.78516L10.2783 5.78516Z" fill="#231F20"/>
<path d="M5.36695 16.7342H18.6331C18.8319 16.7342 19 16.5648 19 16.3671C19 16.1694 18.8291 16 18.6331 16H5.36695C5.16807 16 5 16.1694 5 16.3671C5 16.5648 5.17087 16.7342 5.36695 16.7342Z" fill="#231F20"/>
<path d="M18.8496 16.3672C18.8496 16.2527 18.7464 16.1504 18.6328 16.1504H5.36719C5.25155 16.1504 5.15039 16.252 5.15039 16.3672C5.15044 16.4817 5.25364 16.584 5.36719 16.584H18.6328C18.7484 16.584 18.8496 16.4824 18.8496 16.3672ZM19.1504 16.3672C19.1503 16.6473 18.9149 16.8838 18.6328 16.8838H5.36719C5.08863 16.8838 4.84965 16.648 4.84961 16.3672C4.84961 16.0871 5.08506 15.8496 5.36719 15.8496H18.6328C18.9114 15.8496 19.1504 16.0863 19.1504 16.3672Z" fill="#231F20"/>
<path d="M7.36695 19.7342H16.437C16.6359 19.7342 16.8039 19.5648 16.8039 19.3671C16.8039 19.1694 16.6331 19 16.437 19H7.36695C7.16807 19 7 19.1694 7 19.3671C7 19.5648 7.17087 19.7342 7.36695 19.7342Z" fill="#231F20"/>
<path d="M16.6543 19.3672C16.6543 19.2527 16.5501 19.1504 16.4365 19.1504H7.36719C7.25155 19.1504 7.15039 19.252 7.15039 19.3672C7.15044 19.4817 7.25364 19.584 7.36719 19.584H16.4365C16.5521 19.584 16.6543 19.4824 16.6543 19.3672ZM16.9541 19.3672C16.9541 19.6473 16.7186 19.8838 16.4365 19.8838H7.36719C7.08863 19.8838 6.84965 19.648 6.84961 19.3672C6.84961 19.0871 7.08506 18.8496 7.36719 18.8496H16.4365C16.7151 18.8496 16.9541 19.0863 16.9541 19.3672Z" fill="#231F20"/>
<path d="M18.6331 22.0432H5.36695C5.16807 22.0432 5 22.2126 5 22.4103C5 22.608 5.17087 22.7774 5.36695 22.7774H18.6331C18.8319 22.7774 19 22.608 19 22.4103C19 22.2126 18.8011 22.0432 18.6331 22.0432Z" fill="#231F20"/>
<path d="M18.8496 22.4104C18.8496 22.3625 18.8249 22.3081 18.7764 22.2619C18.7265 22.2147 18.6698 22.1936 18.6328 22.1936H5.36719C5.25155 22.1936 5.15039 22.2951 5.15039 22.4104C5.15044 22.5248 5.25364 22.6272 5.36719 22.6272H18.6328C18.7484 22.6272 18.8496 22.5256 18.8496 22.4104ZM19.1504 22.4104C19.1503 22.6905 18.9149 22.927 18.6328 22.927H5.36719C5.08863 22.927 4.84965 22.6912 4.84961 22.4104C4.84961 22.1303 5.08506 21.8928 5.36719 21.8928H18.6328C18.7639 21.8928 18.8908 21.9573 18.9824 22.0442C19.0752 22.1321 19.1504 22.2607 19.1504 22.4104Z" fill="#231F20"/>
</svg>
