<svg width="24" height="24" viewBox="0 0 24 24" fill="none" xmlns="http://www.w3.org/2000/svg">
<path d="M20.2895 20.8889V22H3.71053V20.8889H20.2895ZM21.3947 19.7778V4.22222C21.3947 3.60857 20.8999 3.11111 20.2895 3.11111H3.71053C3.10011 3.11111 2.60526 3.60857 2.60526 4.22222V19.7778C2.60526 20.3914 3.10011 20.8889 3.71053 20.8889V22C2.56586 22 1.6249 21.1253 1.51187 20.0046L1.5 19.7778V4.22222C1.5 2.99492 2.48969 2 3.71053 2H20.2895L20.5151 2.01194C21.6299 2.12556 22.5 3.0715 22.5 4.22222V19.7778C22.5 20.9285 21.6299 21.8744 20.5151 21.9881L20.2895 22V20.8889C20.8999 20.8889 21.3947 20.3914 21.3947 19.7778Z" fill="#231F20"/>
<path d="M10.762 15.5276L9.92223 16.2502L7.09 12.9277L2.51784 20.0783L1.58743 19.4772L6.96263 11.0723L10.762 15.5276Z" fill="#231F20"/>
<path d="M14.6369 9.42513L22.3737 18.8696L21.521 19.5749L14.2861 10.7435L9.16021 19.5043L8.20821 18.9401L14.135 8.81098L14.6369 9.42513Z" fill="#231F20"/>
<path d="M18.8526 6.77776C18.8526 6.16411 18.3578 5.66665 17.7474 5.66665C17.137 5.66665 16.6421 6.16411 16.6421 6.77776C16.6421 7.39141 17.137 7.88888 17.7474 7.88888V8.99999C16.5265 8.99999 15.5369 8.00506 15.5369 6.77776C15.5369 5.55046 16.5265 4.55554 17.7474 4.55554C18.9682 4.55554 19.9579 5.55046 19.9579 6.77776C19.9579 8.00506 18.9682 8.99999 17.7474 8.99999V7.88888C18.3578 7.88888 18.8526 7.39141 18.8526 6.77776Z" fill="#231F20"/>
</svg>
