<svg width="24" height="24" viewBox="0 0 24 24" fill="none" xmlns="http://www.w3.org/2000/svg">
<path d="M6 21.5V22.5H4V21.5H6ZM7 20.5V3.5C7 2.94772 6.55228 2.5 6 2.5H4C3.44772 2.5 3 2.94772 3 3.5V20.5C3 21.0523 3.44772 21.5 4 21.5V22.5L3.7959 22.4893C2.85435 22.3938 2.1062 21.6457 2.01074 20.7041L2 20.5V3.5C2 2.39543 2.89543 1.5 4 1.5H6C7.10457 1.5 8 2.39543 8 3.5V20.5C8 21.5357 7.21278 22.387 6.2041 22.4893L6 22.5V21.5C6.55228 21.5 7 21.0523 7 20.5Z" fill="#231F20"/>
<path d="M11.2374 4.69103H21.7626C21.8913 4.69103 22 4.53156 22 4.34552C22 4.15947 21.8894 4 21.7626 4H11.2374C11.1087 4 11 4.15947 11 4.34552C11 4.53156 11.1106 4.69103 11.2374 4.69103Z" fill="#231F20"/>
<path d="M21.8496 4.3457C21.8496 4.2812 21.8306 4.22489 21.8057 4.18848C21.7934 4.17072 21.7817 4.15959 21.7734 4.1543C21.7695 4.15179 21.7662 4.15088 21.7646 4.15039H11.2373C11.2366 4.15041 11.2331 4.15024 11.2266 4.1543C11.2184 4.15942 11.2064 4.16991 11.1943 4.1875C11.1696 4.22364 11.1504 4.28042 11.1504 4.3457C11.1504 4.41028 11.1693 4.46656 11.1943 4.50293C11.2064 4.52049 11.2183 4.53079 11.2266 4.53613C11.2306 4.53866 11.2338 4.54053 11.2354 4.54102H21.7627C21.7634 4.541 21.7667 4.54037 21.7734 4.53613C21.7816 4.53098 21.7935 4.5207 21.8057 4.50293C21.8304 4.46682 21.8496 4.41083 21.8496 4.3457ZM22.1504 4.3457C22.1504 4.46631 22.1154 4.58282 22.0537 4.67285C21.9932 4.76112 21.8928 4.84077 21.7627 4.84082H11.2373C11.1078 4.84077 11.0076 4.76042 10.9473 4.67285C10.8855 4.58311 10.8496 4.46678 10.8496 4.3457C10.8496 4.22515 10.8847 4.1086 10.9463 4.01855C11.0068 3.93029 11.1072 3.84966 11.2373 3.84961H21.7627C21.8922 3.84966 21.9924 3.93002 22.0527 4.01758C22.1146 4.10742 22.1504 4.22439 22.1504 4.3457Z" fill="#231F20"/>
<path d="M11.2374 7.34889H19.6945C19.8232 7.34889 19.9319 7.18942 19.9319 7.00337C19.9319 6.81733 19.8214 6.65786 19.6945 6.65786H11.2374C11.1087 6.65786 11 6.81733 11 7.00337C11 7.18942 11.1106 7.34889 11.2374 7.34889Z" fill="#231F20"/>
<path d="M19.7822 7.00356C19.7822 6.93898 19.7623 6.88275 19.7373 6.84633C19.725 6.82842 19.7134 6.8174 19.7051 6.81216C19.7011 6.80963 19.6978 6.80873 19.6963 6.80825H11.2373C11.2366 6.80827 11.2331 6.80809 11.2266 6.81216C11.2184 6.81728 11.2064 6.82776 11.1943 6.84536C11.1696 6.8815 11.1504 6.93828 11.1504 7.00356C11.1504 7.06813 11.1693 7.12441 11.1943 7.16079C11.2064 7.17835 11.2183 7.18865 11.2266 7.19399C11.2306 7.19652 11.2338 7.19839 11.2354 7.19887H19.6943C19.6945 7.19887 19.6984 7.1988 19.7061 7.19399C19.7142 7.18879 19.7253 7.17836 19.7373 7.16079C19.7621 7.12468 19.7822 7.06876 19.7822 7.00356ZM20.082 7.00356C20.082 7.12423 20.0471 7.24066 19.9854 7.33071C19.9248 7.419 19.8245 7.49868 19.6943 7.49868H11.2373C11.1078 7.49862 11.0076 7.41828 10.9473 7.33071C10.8855 7.24097 10.8496 7.12463 10.8496 7.00356C10.8496 6.88301 10.8847 6.76645 10.9463 6.67641C11.0068 6.58815 11.1072 6.50752 11.2373 6.50747H19.6943C19.8238 6.50747 19.924 6.5879 19.9844 6.67544C20.0463 6.76528 20.082 6.88225 20.082 7.00356Z" fill="#231F20"/>
<path d="M21.7626 9.6877H11.2374C11.1087 9.6877 11 9.84717 11 10.0332C11 10.2193 11.1106 10.3787 11.2374 10.3787H21.7626C21.8913 10.3787 22 10.2193 22 10.0332C22 9.84717 21.8713 9.6877 21.7626 9.6877Z" fill="#231F20"/>
<path d="M21.8496 10.0334C21.8496 9.97411 21.829 9.91823 21.8008 9.87911C21.7776 9.8472 21.7606 9.83963 21.7578 9.83809H11.2373C11.2366 9.83811 11.2331 9.83794 11.2266 9.842C11.2184 9.84712 11.2064 9.85761 11.1943 9.8752C11.1696 9.91134 11.1504 9.96812 11.1504 10.0334C11.1504 10.098 11.1693 10.1543 11.1943 10.1906C11.2064 10.2082 11.2183 10.2185 11.2266 10.2238C11.2306 10.2264 11.2338 10.2282 11.2354 10.2287H21.7627C21.7634 10.2287 21.7667 10.2281 21.7734 10.2238C21.7816 10.2187 21.7935 10.2084 21.8057 10.1906C21.8304 10.1545 21.8496 10.0985 21.8496 10.0334ZM22.1504 10.0334C22.1504 10.154 22.1154 10.2705 22.0537 10.3606C21.9932 10.4488 21.8928 10.5285 21.7627 10.5285H11.2373C11.1078 10.5285 11.0076 10.4481 10.9473 10.3606C10.8855 10.2708 10.8496 10.1545 10.8496 10.0334C10.8496 9.91285 10.8847 9.7963 10.9463 9.70626C11.0068 9.61799 11.1072 9.53736 11.2373 9.53731H21.7627C21.8865 9.53737 21.9855 9.62169 22.0439 9.70235C22.1071 9.78945 22.1504 9.90682 22.1504 10.0334Z" fill="#231F20"/>
<path d="M11.2374 13.3289H15.814C15.9427 13.3289 16.0514 13.1694 16.0514 12.9833C16.0514 12.7973 15.9227 12.6644 15.814 12.6644H11.2374C11.1087 12.6644 11 12.8239 11 13.0099C11 13.196 11.1106 13.3289 11.2374 13.3289Z" fill="#231F20"/>
<path d="M15.9014 12.9837C15.9014 12.9255 15.8808 12.879 15.8564 12.849C15.8353 12.8229 15.8189 12.8163 15.8145 12.8148H11.2373C11.2366 12.8148 11.2331 12.8146 11.2266 12.8187C11.2184 12.8238 11.2064 12.8343 11.1943 12.8519C11.1696 12.888 11.1504 12.9448 11.1504 13.0101C11.1504 13.074 11.1695 13.1206 11.1904 13.1478C11.2112 13.1746 11.2292 13.179 11.2373 13.1791H15.8145C15.8156 13.179 15.8191 13.178 15.8252 13.1742C15.8334 13.169 15.8452 13.1587 15.8574 13.141C15.8821 13.1049 15.9013 13.0488 15.9014 12.9837ZM16.2012 12.9837C16.2011 13.1044 16.1662 13.2209 16.1045 13.3109C16.044 13.399 15.9442 13.4787 15.8145 13.4789H11.2373C10.9937 13.4788 10.8497 13.2401 10.8496 13.0101C10.8496 12.8896 10.8847 12.773 10.9463 12.683C11.0068 12.5947 11.1072 12.5141 11.2373 12.514H15.8145C15.9275 12.5142 16.0257 12.5804 16.0898 12.6595C16.157 12.7424 16.2012 12.8559 16.2012 12.9837Z" fill="#231F20"/>
<path d="M11.2374 16.6512H18.3406C18.4693 16.6512 18.578 16.4917 18.578 16.3057C18.578 16.1196 18.4675 15.9602 18.3406 15.9602H11.2374C11.1087 15.9602 11 16.1196 11 16.3057C11 16.4917 11.1106 16.6512 11.2374 16.6512Z" fill="#231F20"/>
<path d="M18.4277 16.3059C18.4277 16.2414 18.4087 16.1851 18.3838 16.1486C18.3714 16.1307 18.3589 16.1197 18.3506 16.1145C18.3469 16.1122 18.3443 16.111 18.3428 16.1106H11.2373C11.2366 16.1106 11.2331 16.1104 11.2266 16.1145C11.2184 16.1196 11.2064 16.1301 11.1943 16.1477C11.1696 16.1838 11.1504 16.2406 11.1504 16.3059C11.1504 16.3704 11.1693 16.4267 11.1943 16.4631C11.2064 16.4807 11.2183 16.491 11.2266 16.4963C11.2306 16.4988 11.2338 16.5007 11.2354 16.5012H18.3408C18.3417 16.5011 18.345 16.5004 18.3516 16.4963C18.3597 16.4911 18.3716 16.4809 18.3838 16.4631C18.4085 16.427 18.4277 16.371 18.4277 16.3059ZM18.7275 16.3059C18.7275 16.4266 18.6926 16.543 18.6309 16.633C18.5704 16.7212 18.4707 16.8009 18.3408 16.801H11.2373C11.1078 16.8009 11.0076 16.7206 10.9473 16.633C10.8855 16.5433 10.8496 16.4269 10.8496 16.3059C10.8496 16.1853 10.8847 16.0688 10.9463 15.9787C11.0068 15.8905 11.1072 15.8098 11.2373 15.8098H18.3408C18.4703 15.8099 18.5705 15.8902 18.6309 15.9777C18.6928 16.0676 18.7275 16.1846 18.7275 16.3059Z" fill="#231F20"/>
<path d="M21.7626 19.3089H11.2374C11.1087 19.3089 11 19.4684 11 19.6545C11 19.8405 11.1106 20 11.2374 20H21.7626C21.8913 20 22 19.8405 22 19.6545C22 19.4684 21.8713 19.3089 21.7626 19.3089Z" fill="#231F20"/>
<path d="M21.8496 19.6546C21.8496 19.5953 21.829 19.5395 21.8008 19.5003C21.7776 19.4684 21.7606 19.4609 21.7578 19.4593H11.2373C11.2366 19.4593 11.2331 19.4592 11.2266 19.4632C11.2184 19.4684 11.2064 19.4788 11.1943 19.4964C11.1696 19.5326 11.1504 19.5894 11.1504 19.6546C11.1504 19.7192 11.1693 19.7755 11.1943 19.8119C11.2064 19.8294 11.2183 19.8397 11.2266 19.8451C11.2306 19.8476 11.2338 19.8495 11.2354 19.85H21.7627C21.7634 19.8499 21.7667 19.8493 21.7734 19.8451C21.7816 19.8399 21.7935 19.8296 21.8057 19.8119C21.8304 19.7758 21.8496 19.7198 21.8496 19.6546ZM22.1504 19.6546C22.1504 19.7752 22.1154 19.8918 22.0537 19.9818C21.9932 20.0701 21.8928 20.1497 21.7627 20.1498H11.2373C11.1078 20.1497 11.0076 20.0694 10.9473 19.9818C10.8855 19.892 10.8496 19.7757 10.8496 19.6546C10.8496 19.5341 10.8847 19.4175 10.9463 19.3275C11.0068 19.2392 11.1072 19.1586 11.2373 19.1585H21.7627C21.8865 19.1586 21.9855 19.2429 22.0439 19.3236C22.1071 19.4107 22.1504 19.5281 22.1504 19.6546Z" fill="#231F20"/>
</svg>
