<svg width="24" height="24" viewBox="0 0 24 24" fill="none" xmlns="http://www.w3.org/2000/svg">
<path fill-rule="evenodd" clip-rule="evenodd" d="M19.7811 20.4625L17.485 16.3651C17.0737 15.6317 16.2069 15.3352 15.4636 15.6361L14.7917 14.4371C16.3138 13.4598 17.4032 11.9472 17.8698 10.1535C18.3573 8.278 18.1071 6.31893 17.1647 4.63727C16.2222 2.95562 14.7007 1.75281 12.8804 1.25053C11.0601 0.748255 9.15859 1.00604 7.52639 1.97703C4.15747 3.98108 2.99864 8.43572 4.94376 11.9067C6.2489 14.2363 8.62559 15.5398 11.0656 15.5398C12.1851 15.5398 13.3181 15.2656 14.3675 14.6898L15.0394 15.8888C14.7671 16.1124 14.571 16.419 14.4788 16.7743C14.365 17.2113 14.4228 17.6674 14.6411 18.0569L16.9372 22.155C17.1555 22.5451 17.5096 22.8238 17.9344 22.941C18.077 22.9803 18.2208 22.9999 18.3641 22.9999C18.6481 22.9999 18.9278 22.9233 19.1793 22.7738C19.5573 22.5489 19.8285 22.1841 19.9422 21.7464C20.0571 21.3081 19.9994 20.8527 19.7811 20.4625ZM11.065 15.0363C8.79403 15.0356 6.58211 13.8227 5.36733 11.6546C3.55685 8.42432 4.63515 4.27814 7.77106 2.41344C8.78297 1.81108 9.90553 1.50389 11.0435 1.50389C11.614 1.50389 12.1882 1.58116 12.7537 1.73761C14.448 2.20569 15.8638 3.32489 16.7411 4.89C17.6184 6.4551 17.8514 8.278 17.3971 10.0236C16.9434 11.7693 15.8565 13.2279 14.3374 14.1318C13.3058 14.7443 12.1789 15.0363 11.065 15.0363ZM18.9358 22.3367C18.3856 22.6642 17.6792 22.4691 17.3614 21.9022L15.0653 17.8042C14.9122 17.5312 14.8716 17.2113 14.9515 16.9041C15.0314 16.597 15.2214 16.3404 15.4864 16.1827C16.0366 15.8553 16.7429 16.0503 17.0608 16.6172L19.3569 20.7146C19.6754 21.2815 19.486 22.0093 18.9358 22.3367ZM18.634 21.2942C18.7016 21.4145 18.6616 21.5684 18.5442 21.6381C18.5055 21.6615 18.4637 21.6723 18.4225 21.6723C18.3383 21.6723 18.2559 21.6267 18.2104 21.5463L17.6725 20.5854C17.6048 20.4651 17.6448 20.3112 17.7622 20.2415C17.879 20.1718 18.0284 20.213 18.096 20.334L18.634 21.2942Z" fill="url(#paint0_linear_28_1887)"/>
<path d="M7.44924 1.84851C9.11627 0.856798 11.0601 0.59319 12.9199 1.10632C14.7798 1.6195 16.3344 2.84855 17.2959 4.56433C18.2572 6.27988 18.5118 8.27874 18.0147 10.1913C17.5509 11.974 16.482 13.4836 14.9893 14.4833L15.5332 15.453C16.3171 15.2032 17.1913 15.5341 17.6162 16.2919L19.9121 20.3895C20.1493 20.8137 20.2115 21.3087 20.0869 21.7841C19.9636 22.2587 19.6688 22.6566 19.2559 22.9022C18.9817 23.0652 18.6755 23.1502 18.3643 23.1503C18.2073 23.1503 18.0498 23.1285 17.8946 23.0858C17.4307 22.9579 17.0442 22.6529 16.8067 22.2284L14.5098 18.1298C14.2726 17.7061 14.2107 17.2101 14.334 16.7362C14.4231 16.3934 14.6019 16.0917 14.8496 15.8573L14.3057 14.8885C13.271 15.4285 12.1628 15.6903 11.0654 15.6903C8.57213 15.6903 6.14461 14.358 4.81252 11.9803C2.82873 8.44035 4.00909 3.89531 7.44924 1.84851ZM12.8408 1.39538C11.0602 0.904052 9.2008 1.15618 7.60353 2.10632C4.30642 4.06766 3.16831 8.43117 5.07424 11.8329C6.35242 14.1142 8.67896 15.3895 11.0654 15.3895C12.1601 15.3895 13.2682 15.1217 14.2949 14.5585L14.4258 14.4872L15.1699 15.8153L15.2315 15.9247L15.1348 16.0048C14.8875 16.2078 14.7084 16.4871 14.624 16.8124C14.5201 17.2121 14.5727 17.6281 14.7715 17.9833L17.0684 22.0819C17.2673 22.4374 17.5891 22.6904 17.9746 22.7967C18.1045 22.8324 18.235 22.8495 18.3643 22.8495C18.6209 22.8494 18.8741 22.7802 19.1026 22.6444C19.4455 22.4404 19.6928 22.1093 19.7969 21.7089C19.9019 21.308 19.8494 20.8918 19.6504 20.536L17.3545 16.4384C16.9797 15.7699 16.1919 15.5031 15.5196 15.7753L15.3975 15.8251L14.6612 14.5106L14.5918 14.3876L14.711 14.3104C16.2004 13.354 17.2673 11.8738 17.7246 10.1161C18.2024 8.27798 17.9574 6.35839 17.0342 4.71081C16.111 3.06341 14.6215 1.88682 12.8408 1.39538ZM15.4092 16.0536C16.0338 15.6819 16.8334 15.9054 17.1914 16.5438L19.4873 20.6415C19.8446 21.2776 19.6344 22.0956 19.0127 22.4657C18.3881 22.8374 17.5885 22.614 17.2305 21.9755L14.9346 17.8778C14.7623 17.5706 14.7171 17.2103 14.8067 16.8661C14.8962 16.5223 15.1094 16.2321 15.4092 16.0536ZM16.9297 16.6903C16.652 16.1954 16.0391 16.0286 15.5635 16.3114C15.3336 16.4482 15.167 16.6719 15.0967 16.9423C15.0265 17.2124 15.0625 17.4927 15.1963 17.7313L17.4922 21.829C17.7699 22.3242 18.3836 22.491 18.8594 22.2079C19.3378 21.923 19.506 21.2855 19.2266 20.788L16.9297 16.6903ZM17.7588 20.078C17.9349 20.0174 18.1322 20.0922 18.2266 20.2606L18.7647 21.2206C18.8712 21.4102 18.8101 21.6552 18.6211 21.7675L18.6201 21.7665C18.5578 21.8039 18.4901 21.8221 18.4229 21.8221C18.2847 21.8221 18.1522 21.7475 18.0801 21.62L17.542 20.6591C17.4354 20.4693 17.4965 20.2244 17.6856 20.1122L17.7588 20.078ZM17.8389 20.37C17.7934 20.3971 17.7745 20.4607 17.8028 20.5116L17.8037 20.5126L18.3408 21.4725L18.377 21.5096C18.3913 21.5181 18.4076 21.5223 18.4229 21.5223C18.4373 21.5223 18.4523 21.5184 18.4668 21.5096L18.4678 21.5087C18.5133 21.4815 18.5314 21.4189 18.5029 21.368L17.9649 20.4071C17.9373 20.3579 17.8811 20.3448 17.8389 20.37ZM11.043 1.35437C11.6271 1.35437 12.2154 1.43262 12.794 1.59265C14.5276 2.07163 15.9757 3.21722 16.8721 4.81628C17.7124 6.31549 17.9741 8.04682 17.6211 9.72644L17.542 10.0614C17.0786 11.8444 15.9678 13.3362 14.4141 14.2606C13.3591 14.887 12.2057 15.1863 11.0654 15.1864C8.74142 15.1856 6.47805 13.9443 5.23635 11.7284C3.38709 8.42892 4.48678 4.19137 7.69435 2.28405C8.72898 1.66823 9.87796 1.35445 11.043 1.35437ZM11.043 1.65417C9.93261 1.65426 8.83649 1.95329 7.84767 2.54187C4.78371 4.36397 3.72664 8.41995 5.49807 11.5809C6.68587 13.7009 8.84786 14.886 11.0654 14.8866C12.1528 14.8865 13.2529 14.6012 14.2608 14.0028L14.5342 13.8309C15.8756 12.9404 16.8357 11.5875 17.252 9.9862C17.6965 8.27799 17.4684 6.49477 16.6104 4.96374C15.7522 3.43276 14.3687 2.33888 12.7139 1.88171C12.1613 1.72885 11.5999 1.65417 11.043 1.65417Z" fill="#231F20"/>
<path d="M7.39764 1.76241C9.08788 0.756892 11.0602 0.489132 12.9465 1.00948C14.8326 1.52991 16.4087 2.77687 17.383 4.51534C18.357 6.25357 18.6151 8.27916 18.1115 10.2165C17.6497 11.9918 16.5936 13.4989 15.1203 14.5124L15.5822 15.3357C16.3904 15.1173 17.2694 15.4692 17.7033 16.2429L19.9992 20.3405C20.2179 20.7316 20.2956 21.1799 20.2238 21.6208L20.1838 21.8093C20.054 22.3087 19.743 22.7285 19.3068 22.988C19.0176 23.1599 18.6939 23.2506 18.3644 23.2507C18.1983 23.2507 18.0318 23.2273 17.8683 23.1823C17.3783 23.0472 16.9694 22.7246 16.7189 22.2771L14.423 18.1784C14.1732 17.732 14.1078 17.209 14.2375 16.7107C14.3245 16.3762 14.4931 16.0784 14.7258 15.8396L14.2648 15.0192C13.2405 15.5368 12.1485 15.7907 11.0656 15.7907C8.53671 15.7907 6.07584 14.4387 4.72576 12.029C2.71618 8.44299 3.90996 3.8377 7.39764 1.76241ZM17.6252 22.5329C17.7403 22.6063 17.8665 22.6627 18.0012 22.6999L18.1828 22.737C18.2435 22.7452 18.3042 22.7497 18.3644 22.7497C18.5065 22.7497 18.6465 22.7237 18.7824 22.6784C18.3892 22.8061 17.9664 22.7471 17.6252 22.5329ZM16.8429 16.739C16.5921 16.2919 16.0405 16.1439 15.6144 16.3972C15.408 16.5201 15.2575 16.7217 15.1935 16.9675C15.1298 17.2128 15.1624 17.4666 15.2834 17.6823L17.5793 21.78C17.8301 22.2273 18.3816 22.3752 18.8078 22.1218C19.2386 21.8652 19.3933 21.2879 19.1398 20.8366L16.8429 16.739ZM17.8107 19.9626C18.0087 19.9324 18.2108 20.0281 18.3137 20.2116L18.8517 21.1716C18.9841 21.4072 18.9091 21.7125 18.6721 21.8532L18.6056 21.8933L18.5988 21.8864C18.5418 21.9092 18.4827 21.9225 18.423 21.9226C18.249 21.9226 18.0833 21.8284 17.9933 21.6696L17.9924 21.6687L17.4543 20.7077C17.3228 20.4723 17.3981 20.1666 17.6349 20.0261L17.6428 20.0212L17.717 19.987L17.7258 19.9831L17.8107 19.9626ZM16.6838 15.9226C16.3385 15.7451 15.9284 15.7165 15.5568 15.8669L15.4357 15.9177L15.3576 15.9489L15.2951 16.0017L15.2443 16.0427C15.2806 16.0159 15.3184 15.9908 15.3576 15.9675C15.7804 15.7159 16.2774 15.7173 16.6838 15.9226ZM7.69647 14.3757C8.72301 14.9739 9.88713 15.2897 11.0656 15.2898C11.7754 15.2897 12.49 15.1727 13.1847 14.9362C12.4908 15.1714 11.7758 15.2868 11.0656 15.2868C9.88649 15.2864 8.72271 14.9712 7.69647 14.3757ZM11.0431 1.7546C9.95095 1.75468 8.87211 2.04818 7.89861 2.62764C4.8825 4.42133 3.83969 8.41712 5.58514 11.5319C6.75497 13.6198 8.8836 14.7862 11.0656 14.7868C12.1344 14.7867 13.2157 14.5058 14.2072 13.9177L14.4806 13.7458C15.8 12.8691 16.7455 11.5378 17.1554 9.96065C17.5934 8.27744 17.3689 6.52066 16.5236 5.01241C15.6783 3.50428 14.316 2.42819 12.6877 1.97823C12.1438 1.82779 11.591 1.75461 11.0431 1.7546ZM14.465 14.3464C14.3823 14.3955 14.2979 14.4409 14.214 14.486C14.2246 14.4803 14.2367 14.4762 14.2472 14.4704L14.3781 14.3991L14.4582 14.3552L14.5373 14.3034L14.6564 14.2263L14.6867 14.2067C14.6136 14.2541 14.5402 14.3016 14.465 14.3464ZM12.8146 1.4919C11.3559 1.0894 9.84395 1.19424 8.47088 1.77901C9.29164 1.43127 10.1628 1.25466 11.0431 1.2546C11.6361 1.25461 12.2333 1.33342 12.8205 1.49581C13.334 1.63768 13.8221 1.83886 14.2795 2.09053C13.8202 1.83686 13.3303 1.63426 12.8146 1.4919Z" fill="#231F20"/>
<defs>
<linearGradient id="paint0_linear_28_1887" x1="5.88019" y1="2.92928" x2="22.8724" y2="19.5584" gradientUnits="userSpaceOnUse">
<stop stop-color="#231F20"/>
<stop offset="1" stop-color="#231F20"/>
</linearGradient>
</defs>
</svg>
