<svg width="24" height="24" viewBox="0 0 24 24" fill="none" xmlns="http://www.w3.org/2000/svg">
<path fill-rule="evenodd" clip-rule="evenodd" d="M19.7811 20.4625L17.485 16.3651C17.0737 15.6317 16.2069 15.3353 15.4636 15.6361L14.7917 14.4371C16.3138 13.4598 17.4032 11.9472 17.8698 10.1535C18.3573 8.27801 18.1071 6.31894 17.1647 4.63728C16.2222 2.95563 14.7007 1.75282 12.8804 1.25054C11.0601 0.748266 9.15859 1.00606 7.52639 1.97704C4.15748 3.98109 2.99865 8.43573 4.94376 11.9067C6.24891 14.2363 8.62559 15.5398 11.0656 15.5398C12.1851 15.5398 13.3181 15.2656 14.3675 14.6898L15.0394 15.8888C14.7671 16.1124 14.571 16.419 14.4788 16.7743C14.365 17.2114 14.4228 17.6674 14.6411 18.0569L16.9372 22.155C17.1555 22.5451 17.5096 22.8238 17.9344 22.941C18.077 22.9803 18.2208 22.9999 18.3641 22.9999C18.6481 22.9999 18.9278 22.9233 19.1793 22.7738C19.5573 22.5489 19.8285 22.1841 19.9422 21.7464C20.0572 21.3081 19.9994 20.8527 19.7811 20.4625ZM11.065 15.0363C8.79404 15.0357 6.58211 13.8227 5.36734 11.6546C3.55685 8.42433 4.63515 4.27815 7.77107 2.41345C8.78297 1.81109 9.90553 1.5039 11.0435 1.5039C11.614 1.5039 12.1882 1.58117 12.7537 1.73762C14.448 2.2057 15.8638 3.3249 16.7411 4.89001C17.6184 6.45511 17.8514 8.27801 17.3971 10.0236C16.9434 11.7693 15.8565 13.228 14.3374 14.1318C13.3058 14.7443 12.1789 15.0363 11.065 15.0363ZM18.9358 22.3368C18.3856 22.6642 17.6792 22.4691 17.3614 21.9022L15.0653 17.8042C14.9122 17.5312 14.8716 17.2114 14.9515 16.9042C15.0314 16.597 15.2214 16.3404 15.4864 16.1827C16.0366 15.8553 16.743 16.0503 17.0608 16.6172L19.3569 20.7146C19.6754 21.2815 19.486 22.0093 18.9358 22.3368ZM18.634 21.2942C18.7016 21.4145 18.6616 21.5684 18.5442 21.6381C18.5055 21.6616 18.4637 21.6723 18.4225 21.6723C18.3383 21.6723 18.2559 21.6267 18.2104 21.5463L17.6725 20.5854C17.6049 20.4651 17.6448 20.3112 17.7622 20.2415C17.879 20.1718 18.0284 20.213 18.096 20.334L18.634 21.2942Z" fill="url(#paint0_linear_28_1887)"/>
<path d="M7.44924 1.84852C9.11628 0.856809 11.0601 0.5932 12.9199 1.10633C14.7798 1.61951 16.3344 2.84856 17.2959 4.56434C18.2572 6.27989 18.5118 8.27875 18.0147 10.1913C17.5509 11.974 16.482 13.4836 14.9893 14.4833L15.5332 15.453C16.3171 15.2032 17.1913 15.5341 17.6162 16.2919L19.9121 20.3895C20.1493 20.8137 20.2115 21.3087 20.0869 21.7841C19.9636 22.2588 19.6688 22.6566 19.2559 22.9022C18.9817 23.0652 18.6755 23.1502 18.3643 23.1503C18.2073 23.1503 18.0498 23.1286 17.8946 23.0858C17.4307 22.9579 17.0442 22.653 16.8067 22.2284L14.5098 18.1298C14.2726 17.7062 14.2107 17.2101 14.334 16.7362C14.4231 16.3934 14.6019 16.0917 14.8496 15.8573L14.3057 14.8886C13.271 15.4285 12.1628 15.6903 11.0655 15.6903C8.57214 15.6903 6.14462 14.358 4.81253 11.9804C2.82874 8.44036 4.0091 3.89532 7.44924 1.84852ZM12.8408 1.39539C11.0602 0.904062 9.20081 1.15619 7.60354 2.10633C4.30642 4.06767 3.16831 8.43118 5.07424 11.8329C6.35243 14.1142 8.67897 15.3895 11.0655 15.3895C12.1601 15.3895 13.2682 15.1217 14.2949 14.5585L14.4258 14.4872L15.1699 15.8153L15.2315 15.9247L15.1348 16.0048C14.8875 16.2078 14.7085 16.4872 14.624 16.8124C14.5201 17.2121 14.5727 17.6281 14.7715 17.9833L17.0684 22.0819C17.2673 22.4374 17.5891 22.6904 17.9746 22.7968C18.1045 22.8325 18.235 22.8495 18.3643 22.8495C18.6209 22.8495 18.8741 22.7802 19.1026 22.6444C19.4455 22.4404 19.6928 22.1093 19.7969 21.7089C19.9019 21.308 19.8494 20.8918 19.6504 20.536L17.3545 16.4384C16.9797 15.7699 16.1919 15.5031 15.5196 15.7753L15.3975 15.8251L14.6612 14.5106L14.5918 14.3876L14.711 14.3104C16.2004 13.354 17.2673 11.8738 17.7246 10.1161C18.2024 8.27799 17.9574 6.3584 17.0342 4.71082C16.111 3.06342 14.6215 1.88683 12.8408 1.39539ZM15.4092 16.0536C16.0338 15.6819 16.8334 15.9054 17.1914 16.5438L19.4873 20.6415C19.8446 21.2776 19.6344 22.0956 19.0127 22.4657C18.3881 22.8375 17.5885 22.614 17.2305 21.9755L14.9346 17.8778C14.7623 17.5706 14.7171 17.2103 14.8067 16.8661C14.8962 16.5223 15.1094 16.2322 15.4092 16.0536ZM16.9297 16.6903C16.652 16.1954 16.0391 16.0286 15.5635 16.3114C15.3336 16.4482 15.167 16.6719 15.0967 16.9423C15.0265 17.2124 15.0625 17.4927 15.1963 17.7313L17.4922 21.829C17.7699 22.3242 18.3836 22.4911 18.8594 22.2079C19.3379 21.923 19.506 21.2855 19.2266 20.788L16.9297 16.6903ZM17.7588 20.078C17.9349 20.0174 18.1322 20.0922 18.2266 20.2606L18.7647 21.2206C18.8713 21.4103 18.8101 21.6552 18.6211 21.7675L18.6201 21.7665C18.5578 21.8039 18.4901 21.8221 18.4229 21.8222C18.2847 21.8222 18.1523 21.7475 18.0801 21.62L17.542 20.6591C17.4354 20.4694 17.4965 20.2244 17.6856 20.1122L17.7588 20.078ZM17.8389 20.37C17.7934 20.3971 17.7745 20.4608 17.8028 20.5116L17.8037 20.5126L18.3408 21.4725L18.377 21.5097C18.3913 21.5181 18.4076 21.5223 18.4229 21.5223C18.4373 21.5223 18.4523 21.5184 18.4668 21.5097L18.4678 21.5087C18.5133 21.4815 18.5314 21.4189 18.503 21.368L17.9649 20.4071C17.9373 20.3579 17.8811 20.3448 17.8389 20.37ZM11.043 1.35438C11.6271 1.35438 12.2154 1.43263 12.794 1.59266C14.5276 2.07165 15.9757 3.21723 16.8721 4.81629C17.7124 6.3155 17.9741 8.04683 17.6211 9.72645L17.542 10.0614C17.0786 11.8444 15.9678 13.3362 14.4141 14.2606C13.3591 14.887 12.2057 15.1863 11.0655 15.1864C8.74143 15.1856 6.47805 13.9443 5.23635 11.7284C3.3871 8.42893 4.48678 4.19138 7.69436 2.28406C8.72899 1.66824 9.87797 1.35446 11.043 1.35438ZM11.043 1.65418C9.93261 1.65427 8.8365 1.9533 7.84768 2.54188C4.78372 4.36398 3.72665 8.41996 5.49807 11.5809C6.68588 13.7009 8.84787 14.886 11.0655 14.8866C12.1528 14.8865 13.2529 14.6012 14.2608 14.0028L14.5342 13.8309C15.8756 12.9404 16.8357 11.5875 17.252 9.98621C17.6966 8.278 17.4684 6.49478 16.6104 4.96375C15.7522 3.43277 14.3687 2.33889 12.7139 1.88172C12.1613 1.72886 11.5999 1.65418 11.043 1.65418Z" fill="#231F20"/>
<defs>
<linearGradient id="paint0_linear_28_1887" x1="5.95407" y1="3.01018" x2="22.7934" y2="19.4367" gradientUnits="userSpaceOnUse">
<stop stop-color="#231F20"/>
<stop offset="1" stop-color="#231F20"/>
</linearGradient>
</defs>
</svg>
