<svg fill="none" version="1.1" width="24" height="24" viewBox="0 0 24 24" xmlns="http://www.w3.org/2000/svg">
<path d="m17.904 1.25c-1.1597 0-2.2552 0.4369-3.0723 1.2227l-11.43 10.996c-1.0636 1.0184-1.6523 2.3922-1.6523 3.8477 0 1.4556 0.58954 2.825 1.6523 3.8477 1.0591 1.0236 2.4819 1.5859 3.9883 1.5859 1.5064 0 2.9283-0.56085 3.9922-1.584l9.5273-9.168c0.20886-0.20093 0.20886-0.54516 0-0.74609-0.20892-0.201-0.54107-0.201-0.75 0l-9.5312 9.166c-0.85845 0.83024-2.0066 1.2852-3.2383 1.2852-1.231 0-2.3814-0.45917-3.2402-1.2852-0.86326-0.82553-1.332-1.9244-1.332-3.1016 0-1.1764 0.47315-2.2756 1.332-3.1016l11.43-10.996c0.61758-0.59383 1.4403-0.92188 2.3242-0.92188 0.88386 0 1.7048 0.32807 2.3223 0.92188 0.61747 0.59382 0.95508 1.3781 0.95508 2.2207 0 0.84258-0.33761 1.6269-0.95508 2.2207l-10.281 9.8867c-0.39028 0.37532-0.91651 0.58398-1.4785 0.58398-0.56202 0-1.0863-0.20867-1.4766-0.58398-0.39023-0.37521-0.60352-0.87324-0.60352-1.4062 0-0.53312 0.21325-1.0329 0.60352-1.4082l8.8008-8.4746c0.20892-0.20093 0.20892-0.54516 0-0.74609-0.20893-0.20097-0.53911-0.20097-0.74805 0l-8.8027 8.4648c-0.59537 0.57261-0.92773 1.341-0.92773 2.1582 0 0.81728 0.33235 1.5876 0.92773 2.1602 0.59593 0.57316 1.395 0.88867 2.2324 0.88867 0.83643 0 1.6346-0.31024 2.2266-0.88477v0.001953l10.275-9.8926c0.81707-0.78577 1.2754-1.8461 1.2754-2.9688s-0.45832-2.181-1.2754-2.9668c-0.81741-0.79061-1.912-1.2227-3.0703-1.2227z" fill="#231f20"/>
</svg>
