<svg width="24" height="24" viewBox="0 0 24 24" fill="none" xmlns="http://www.w3.org/2000/svg">
<path d="M14.0683 13.875C15.0798 13.2027 15.7501 12.0532 15.7501 10.75C15.7501 8.68178 14.0683 7 12 7C9.93171 7 8.24987 8.68178 8.24987 10.75C8.24987 12.0532 8.91827 13.2027 9.93171 13.875C7.64062 14.7208 6.00018 16.9192 6.00018 19.5H6.99982C6.99982 16.7437 9.24359 14.5 12 14.5C14.7564 14.5 17.0002 16.7437 17.0002 19.5H17.9998C17.9998 16.9192 16.3594 14.7208 14.0683 13.875ZM9.24951 10.75C9.24951 9.23383 10.4838 7.99961 12 7.99961C13.5162 7.99961 14.7505 9.23383 14.7505 10.75C14.7505 12.2662 13.5162 13.5004 12 13.5004C10.4838 13.5004 9.24951 12.2662 9.24951 10.75Z" fill="#231F20"/>
<path d="M19.0685 11.375C20.0799 10.7027 20.7503 9.55323 20.7503 8.25C20.7503 6.18178 19.0685 4.5 17.0002 4.5C15.9986 4.5 15.0896 4.89629 14.4153 5.53904C14.1669 5.7776 13.95 6.04771 13.7745 6.3474C14.086 6.47358 14.3838 6.62934 14.6578 6.81664C14.8353 6.52879 15.062 6.27642 15.3282 6.07137C15.7915 5.71451 16.3692 5.50158 16.9982 5.50158C18.5144 5.50158 19.7487 6.7358 19.7487 8.25197C19.7487 9.50986 18.8969 10.5726 17.7415 10.8979C17.5049 10.9649 17.2565 11.0024 16.9982 11.0024C16.9095 11.0024 16.8227 10.9965 16.736 10.9886C16.7182 11.3494 16.6611 11.6983 16.5684 12.0315C16.7103 12.0197 16.8523 12 16.9982 12C17.2013 12 17.4004 12.0158 17.5976 12.0394C20.0721 12.3371 21.9984 14.4468 21.9984 17H22.998C22.998 14.4192 21.3576 12.2208 19.0665 11.375H19.0685Z" fill="#231F20"/>
<path d="M6.99982 12C7.14572 12 7.28769 12.0177 7.42965 12.0315C7.33501 11.6964 7.2798 11.3474 7.26205 10.9886C7.1753 10.9965 7.08855 11.0024 6.99982 11.0024C6.74153 11.0024 6.4931 10.9649 6.2565 10.8979C5.10109 10.5726 4.24933 9.51183 4.24933 8.25197C4.24933 6.7358 5.4836 5.50158 6.99982 5.50158C7.62879 5.50158 8.20649 5.71648 8.66983 6.07137C8.93601 6.27642 9.16472 6.52879 9.3402 6.81664C9.61624 6.62934 9.91199 6.47358 10.2235 6.3474C10.0461 6.04968 9.83115 5.7776 9.58272 5.53904C8.91038 4.89629 7.99946 4.5 6.99785 4.5C4.93153 4.5 3.24969 6.18178 3.24969 8.25C3.24969 9.55323 3.91809 10.7027 4.93153 11.375C2.64044 12.2208 1 14.4192 1 17H1.99964C1.99964 14.4468 3.92597 12.3371 6.40043 12.0394C6.5976 12.0158 6.79674 12 6.99982 12Z" fill="#231F20"/>
</svg>
