<svg width="24" height="24" viewBox="0 0 24 24" fill="none" xmlns="http://www.w3.org/2000/svg">
<path d="M2.52734 9.92111C3.69895 4.57442 9.08925 1.24954 14.3906 2.60275C19.4013 3.88193 22.5235 8.84898 21.5088 13.9299C20.756 17.6999 17.7759 20.6949 14.0371 21.4826L13.6729 21.552C13.322 21.6119 12.9761 21.6498 12.6074 21.7004H11.4492C11.417 21.6881 11.3873 21.6791 11.3613 21.675C11.3334 21.6706 11.3082 21.6698 11.2939 21.6692C11.2743 21.6683 11.2745 21.6686 11.2686 21.6682C10.4439 21.6103 9.6424 21.4591 8.87695 21.176C5.34153 19.8675 3.20962 17.373 2.45215 13.6819C2.38084 13.3332 2.35256 12.993 2.2998 12.6076V11.4113C2.30277 11.3991 2.3066 11.3849 2.3125 11.3596C2.32013 11.3268 2.32951 11.2796 2.33301 11.2268C2.36313 10.7894 2.4323 10.3546 2.52734 9.92111ZM11.9971 3.37228C7.23391 3.37445 3.36785 7.23458 3.37109 11.9895V12.1135L3.37402 12.1164C3.44469 16.8384 7.27765 20.6423 11.9941 20.6301C16.7847 20.6177 20.6356 16.7619 20.6309 11.9807C20.6258 7.22272 16.7615 3.37086 11.9971 3.37228Z" fill="#231F20"/>
<path d="M12.0498 8.13478C12.2523 8.15229 12.4502 8.30467 12.5137 8.5254L12.5283 8.62501C12.5304 8.66374 12.5303 8.71076 12.5303 8.77247C12.5308 9.50993 12.5351 10.2424 12.5274 10.9756C12.5265 11.0643 12.5342 11.2328 12.6651 11.3555C12.7902 11.4725 12.9528 11.4751 13.0293 11.4746C13.8094 11.4684 14.5881 11.4657 15.3662 11.4756C15.6232 11.4791 15.8301 11.6647 15.8662 11.9561C15.8943 12.1859 15.7357 12.4348 15.4814 12.5117C15.4243 12.5291 15.3609 12.5303 15.2393 12.5303L13.0361 12.5274C12.9437 12.5262 12.7733 12.5334 12.6484 12.665C12.5267 12.7937 12.5259 12.9616 12.5283 13.0459L12.5342 13.6123C12.5337 13.8018 12.5315 13.9932 12.5313 14.1885C12.5313 14.5633 12.5349 14.9305 12.5303 15.2988C12.5263 15.6082 12.3416 15.816 12.1026 15.8604L11.9971 15.8692C11.705 15.8655 11.4748 15.6449 11.4727 15.3047C11.468 14.5502 11.4648 13.7976 11.4746 13.0459L11.4727 12.9609C11.4649 12.8649 11.4353 12.7415 11.332 12.6465C11.2023 12.5273 11.0326 12.5266 10.9522 12.5274C10.1867 12.5357 9.41971 12.5335 8.65237 12.5283C8.43468 12.5268 8.28585 12.4312 8.1885 12.2295C8.0938 12.0337 8.11169 11.8567 8.2471 11.6758L8.33303 11.584C8.42734 11.5059 8.54634 11.4689 8.70217 11.4697H9.82717C10.2 11.4693 10.5722 11.4704 10.9463 11.4756C11.0463 11.477 11.2235 11.4694 11.3516 11.332C11.4432 11.2335 11.467 11.1114 11.4727 11.0205L11.4746 10.9424C11.4663 10.1767 11.4658 9.41084 11.4746 8.64552C11.478 8.37799 11.6678 8.16845 11.9629 8.13575L12.0498 8.13478Z" fill="#231F20"/>
</svg>
