<svg width="24" height="24" viewBox="0 0 24 24" fill="none" xmlns="http://www.w3.org/2000/svg">
<path d="M6.2381 20.5C6.17643 20.5 6.11476 20.4822 6.06099 20.4448C5.9416 20.3629 5.89021 20.2096 5.93607 20.0701L6.38912 18.6733C6.81291 17.3658 7.11573 16.0104 7.29046 14.638C6.94495 14.711 6.59231 14.7475 6.2381 14.7475C3.34983 14.7475 1 12.3368 1 9.37373C1 6.41068 3.34983 4 6.2381 4C9.12637 4 11.4762 6.41068 11.4762 9.37373C11.4762 13.5527 9.71066 17.5183 6.63264 20.255L6.44683 20.4205C6.38753 20.4732 6.31321 20.5 6.2381 20.5ZM7.66128 13.8787C7.73481 13.8787 7.80676 13.9047 7.86448 13.9542C7.94671 14.0239 7.9894 14.1318 7.97754 14.2405C7.81072 15.819 7.47943 17.3796 6.99318 18.8794L6.92834 19.0805C9.42524 16.5133 10.8397 13.0287 10.8397 9.37373C10.8397 6.77082 8.77532 4.65296 6.2381 4.65296C3.70088 4.65296 1.63648 6.77082 1.63648 9.37373C1.63648 11.9766 3.70088 14.0945 6.2381 14.0945C6.68956 14.0945 7.13787 14.0264 7.56957 13.8933C7.59961 13.8836 7.63045 13.8787 7.66128 13.8787Z" fill="#231F20"/>
<path d="M11.3262 9.37402C11.3262 6.49023 9.04003 4.15049 6.23828 4.15039C3.43645 4.15039 1.15039 6.49017 1.15039 9.37402C1.15054 12.2577 3.43654 14.5977 6.23828 14.5977C6.58213 14.5976 6.92461 14.562 7.25977 14.4912L7.46582 14.4473L7.43945 14.6572C7.26354 16.0388 6.95889 17.4033 6.53223 18.7197L6.0791 20.1162L6.07812 20.1172C6.05303 20.1941 6.08206 20.2776 6.14551 20.3213C6.17303 20.3404 6.20577 20.3496 6.23828 20.3496C6.27735 20.3496 6.31563 20.336 6.34668 20.3086L6.5332 20.1426C9.57843 17.4348 11.3261 13.5106 11.3262 9.37402ZM10.6895 9.37402C10.6895 6.85038 8.68898 4.80284 6.23828 4.80273C3.7875 4.80273 1.78613 6.85031 1.78613 9.37402C1.78629 11.8976 3.78759 13.9443 6.23828 13.9443C6.66993 13.9443 7.09836 13.8789 7.51172 13.7529V13.7285H7.66113C7.77005 13.7285 7.87686 13.7671 7.96191 13.8398L8.04102 13.9258C8.10828 14.0203 8.13957 14.1381 8.12695 14.2559C7.97513 15.6923 7.68594 17.114 7.27051 18.4893C9.45903 16.0054 10.6894 12.7643 10.6895 9.37402ZM10.9893 9.37402C10.9892 13.0675 9.5605 16.5901 7.03613 19.1855L6.78516 19.0342L6.85059 18.833C7.33359 17.3432 7.66239 15.7927 7.82812 14.2246V14.1797C7.82212 14.1362 7.80035 14.0962 7.76758 14.0684C7.73852 14.0434 7.70236 14.0304 7.66602 14.0293H7.66113C7.64369 14.0293 7.62897 14.032 7.61621 14.0361L7.61328 14.0371C7.16763 14.1744 6.70462 14.2441 6.23828 14.2441C3.61472 14.2441 1.48648 12.056 1.48633 9.37402C1.48633 6.6919 3.61463 4.50293 6.23828 4.50293C8.86185 4.50303 10.9893 6.69197 10.9893 9.37402ZM11.626 9.37402C11.6259 13.595 9.84289 17.6016 6.73242 20.3672L6.54688 20.5322C6.45949 20.6099 6.34916 20.6503 6.23828 20.6504C6.14753 20.6504 6.05555 20.6238 5.97559 20.5684C5.80122 20.4481 5.72689 20.225 5.79297 20.0234L6.24609 18.627C6.64602 17.393 6.93536 16.1159 7.1123 14.8223C6.8238 14.871 6.5317 14.8975 6.23828 14.8975C3.26367 14.8975 0.849762 12.4162 0.849609 9.37402C0.849609 6.33176 3.26358 3.84961 6.23828 3.84961C9.2129 3.84971 11.626 6.33182 11.626 9.37402Z" fill="#231F20"/>
<path d="M17.7619 20.5C17.7002 20.5 17.6386 20.4822 17.5848 20.4448C17.4654 20.3629 17.414 20.2096 17.4599 20.0701L17.9129 18.6733C18.3367 17.3658 18.6395 16.0104 18.8143 14.638C18.4688 14.711 18.1161 14.7475 17.7619 14.7475C14.8737 14.7475 12.5238 12.3368 12.5238 9.37373C12.5238 6.41068 14.8737 4 17.7619 4C20.6502 4 23 6.41068 23 9.37373C23 13.5527 21.2345 17.5183 18.1565 20.255L17.9707 20.4205C17.9114 20.4732 17.837 20.5 17.7619 20.5ZM19.1851 13.8787C19.2586 13.8787 19.3306 13.9047 19.3883 13.9542C19.4705 14.0239 19.5132 14.1318 19.5014 14.2405C19.3345 15.819 19.0033 17.3796 18.517 18.8794L18.4522 19.0805C20.9491 16.5133 22.3635 13.0287 22.3635 9.37373C22.3635 6.77082 20.2991 4.65296 17.7619 4.65296C15.2247 4.65296 13.1603 6.77082 13.1603 9.37373C13.1603 11.9766 15.2247 14.0945 17.7619 14.0945C18.2134 14.0945 18.6617 14.0264 19.0934 13.8933C19.1234 13.8836 19.1543 13.8787 19.1851 13.8787Z" fill="#231F20"/>
<path d="M22.85 9.37402C22.85 6.49023 20.5639 4.15049 17.7621 4.15039C14.9603 4.15039 12.6742 6.49017 12.6742 9.37402C12.6744 12.2577 14.9604 14.5977 17.7621 14.5977C18.1059 14.5976 18.4484 14.562 18.7836 14.4912L18.9896 14.4473L18.9633 14.6572C18.7874 16.0388 18.4827 17.4033 18.056 18.7197L17.6029 20.1162L17.6019 20.1172C17.5768 20.1941 17.6059 20.2776 17.6693 20.3213C17.6968 20.3404 17.7296 20.3496 17.7621 20.3496C17.8012 20.3496 17.8394 20.336 17.8705 20.3086L18.057 20.1426C21.1022 17.4348 22.8499 13.5106 22.85 9.37402ZM22.2133 9.37402C22.2133 6.85038 20.2128 4.80284 17.7621 4.80273C15.3113 4.80273 13.31 6.85031 13.31 9.37402C13.3101 11.8976 15.3114 13.9443 17.7621 13.9443C18.1937 13.9443 18.6222 13.8789 19.0355 13.7529V13.7285H19.185C19.2939 13.7285 19.4007 13.7671 19.4857 13.8398L19.5648 13.9258C19.6321 14.0203 19.6634 14.1381 19.6508 14.2559C19.499 15.6923 19.2098 17.114 18.7943 18.4893C20.9828 16.0054 22.2132 12.7643 22.2133 9.37402ZM22.5131 9.37402C22.513 13.0675 21.0843 16.5901 18.56 19.1855L18.309 19.0342L18.3744 18.833C18.8574 17.3432 19.1862 15.7927 19.3519 14.2246V14.1797C19.3459 14.1362 19.3242 14.0962 19.2914 14.0684C19.2623 14.0434 19.2262 14.0304 19.1898 14.0293H19.185C19.1675 14.0293 19.1528 14.032 19.14 14.0361L19.1371 14.0371C18.6915 14.1744 18.2284 14.2441 17.7621 14.2441C15.1385 14.2441 13.0103 12.056 13.0101 9.37402C13.0101 6.6919 15.1384 4.50293 17.7621 4.50293C20.3857 4.50303 22.5131 6.69197 22.5131 9.37402ZM23.1498 9.37402C23.1497 13.595 21.3667 17.6016 18.2562 20.3672L18.0707 20.5322C17.9833 20.6099 17.873 20.6503 17.7621 20.6504C17.6713 20.6504 17.5794 20.6238 17.4994 20.5684C17.325 20.4481 17.2507 20.225 17.3168 20.0234L17.7699 18.627C18.1698 17.393 18.4592 16.1159 18.6361 14.8223C18.3476 14.871 18.0555 14.8975 17.7621 14.8975C14.7875 14.8975 12.3736 12.4162 12.3734 9.37402C12.3734 6.33176 14.7874 3.84961 17.7621 3.84961C20.7367 3.84971 23.1498 6.33182 23.1498 9.37402Z" fill="#231F20"/>
</svg>
