<svg width="24" height="24" viewBox="0 0 24 24" fill="none" xmlns="http://www.w3.org/2000/svg">
<path d="M1.80956 8.09125C1.91666 7.98388 2.09126 7.98368 2.19823 8.09125L5.88476 11.7983C5.99068 11.9048 5.99063 12.0775 5.88476 12.184L2.19823 15.8911C2.14479 15.9448 2.07424 15.9721 2.00292 15.9721C1.93169 15.972 1.86274 15.9445 1.80956 15.8911C1.70364 15.7845 1.70362 15.6128 1.80956 15.5063L5.30468 11.9916L1.80956 8.47601C1.7037 8.36948 1.70367 8.19776 1.80956 8.09125Z" fill="#231F20"/>
<path d="M1.6328 7.91449C1.83734 7.70968 2.17106 7.70845 2.37597 7.91449L6.06249 11.6215C6.26531 11.8255 6.26478 12.1558 6.06249 12.3598L2.37597 16.0678C2.27383 16.1705 2.13822 16.2221 2.00292 16.2221C1.86636 16.2218 1.73332 16.1686 1.6328 16.0678L1.63183 16.0668C1.42945 15.8628 1.42904 15.5334 1.63183 15.3295L4.95116 11.9907L1.63183 8.65179C1.42953 8.44777 1.43006 8.11841 1.6328 7.91449ZM1.98632 8.26703C1.97744 8.27599 1.97829 8.29117 1.9873 8.30023L5.65722 11.9916L5.48241 12.1684L1.9873 15.683C1.97853 15.6919 1.97783 15.7052 1.98632 15.7143C1.98967 15.7177 1.99302 15.7193 1.99511 15.7202C1.99719 15.721 1.9997 15.722 2.00292 15.7221C2.01025 15.7221 2.01575 15.7191 2.0205 15.7143L5.70702 12.0073C5.716 11.9982 5.71588 11.9839 5.70702 11.975L2.0205 8.26801C2.01161 8.25907 1.99602 8.25759 1.98632 8.26703Z" fill="#231F20"/>
<path d="M15.4143 12.2458C15.5703 12.4022 15.5707 12.6552 15.4143 12.8112C15.2579 12.9672 15.0039 12.9667 14.8479 12.8102L13.0481 11.0046L10.1721 14.3708C10.0286 14.5387 9.77658 14.5583 9.60866 14.4147C9.44087 14.2712 9.42122 14.0191 9.56472 13.8513L12.7219 10.1569L13.0042 9.82782L15.4143 12.2458Z" fill="#231F20"/>
<path d="M22.8095 15.4417L22.1904 15.9475L17.7715 10.5325L12.8174 16.9934L12.5 16.7502L12.1826 16.5061L17.4453 9.64575L17.7539 9.24438L22.8095 15.4417Z" fill="#231F20"/>
<path d="M19.5942 6.19409C19.5941 5.75958 19.2438 5.41097 18.8159 5.41089C18.3879 5.41089 18.0368 5.75953 18.0366 6.19409C18.0366 6.62881 18.3878 6.97729 18.8159 6.97729V7.77808L18.6548 7.76929C17.8584 7.6884 17.2368 7.01404 17.2368 6.19409C17.237 5.31979 17.944 4.61108 18.8159 4.61108L18.977 4.6189C19.7732 4.69988 20.3948 5.37438 20.395 6.19409L20.3862 6.3562C20.3054 7.15459 19.6334 7.778 18.8159 7.77808V6.97729C19.2439 6.97721 19.5942 6.62876 19.5942 6.19409Z" fill="#231F20"/>
<path d="M22.0501 4.5C22.0501 3.64405 21.3562 2.95034 20.5003 2.9502H11.8684C11.0124 2.9502 10.3186 3.64396 10.3186 4.5V19.5C10.3186 20.356 11.0124 21.0498 11.8684 21.0498H20.5003C21.3562 21.0497 22.0501 20.3559 22.0501 19.5V4.5ZM22.9505 19.5C22.9505 20.853 21.8532 21.95 20.5003 21.9502H11.8684C10.5153 21.9502 9.41823 20.8531 9.41823 19.5V4.5C9.41823 3.1469 10.5153 2.0498 11.8684 2.0498H20.5003C21.8532 2.04995 22.9505 3.14699 22.9505 4.5V19.5Z" fill="#231F20"/>
</svg>
