<svg width="24" height="24" viewBox="0 0 24 24" fill="none" xmlns="http://www.w3.org/2000/svg">
<path d="M18.1748 23H5.82954C5.53143 23 5.25524 22.8616 5.0492 22.6106C4.84315 22.3595 4.73793 22.0316 4.75108 21.6832L5.33854 6.59899C5.36484 5.92779 5.83831 5.40005 6.417 5.40005H17.583C18.1573 5.40005 18.6307 5.92779 18.6614 6.59899L19.2489 21.6883C19.262 22.0367 19.1568 22.3646 18.9508 22.6157C18.7447 22.8668 18.4685 23 18.1748 23ZM6.417 5.89705C6.06628 5.89705 5.78132 6.21472 5.76378 6.61949L5.17633 21.7037C5.16756 21.9138 5.23332 22.1136 5.35607 22.2622C5.47882 22.4159 5.64542 22.4979 5.82516 22.4979H18.166C18.3458 22.4979 18.5124 22.4159 18.6351 22.2622C18.7579 22.1085 18.8236 21.9138 18.8149 21.7037L18.2274 6.61949C18.2099 6.21472 17.9205 5.89705 17.5742 5.89705H6.417Z" fill="#231F20"/>
<path d="M17.583 5.15005C18.3246 5.15006 18.876 5.81927 18.9111 6.58755V6.5895L19.499 21.6784C19.5142 22.0826 19.3913 22.4722 19.1435 22.7741C18.8937 23.0785 18.5489 23.2497 18.1748 23.2497H5.82909C5.44867 23.2495 5.10471 23.0716 4.85643 22.7692C4.60855 22.4672 4.4857 22.0779 4.50096 21.6735L5.08885 6.5895C5.11905 5.81904 5.67166 5.15006 6.41698 5.15005H17.583ZM5.72948 22.7418C5.76245 22.7466 5.79561 22.7496 5.82909 22.7497H18.1748C18.2545 22.7497 18.3332 22.7366 18.4092 22.7096C18.3315 22.7337 18.2503 22.7477 18.166 22.7477H5.82518C5.79286 22.7477 5.76096 22.7455 5.72948 22.7418ZM6.41698 6.14712C6.23256 6.14713 6.02691 6.32451 6.01366 6.63051L5.42577 21.7135C5.42108 21.8276 5.44692 21.9349 5.49413 22.0221L5.54881 22.1032L5.55174 22.1061C5.63055 22.2047 5.72695 22.2477 5.82518 22.2477H18.166C18.2642 22.2477 18.3606 22.2047 18.4394 22.1061C18.5243 21.9999 18.5716 21.8645 18.5654 21.7145L17.9775 6.63051L17.9639 6.52212C17.9125 6.28368 17.7326 6.14712 17.5742 6.14712H6.41698Z" fill="#231F20"/>
<path d="M15.634 8.49026C15.4883 8.49026 15.3696 8.3777 15.3696 8.23957V4.73492C15.3696 2.96981 13.875 1.51679 12.0405 1.50656C11.134 1.49633 10.2761 1.82889 9.63404 2.43261C8.99195 3.03632 8.64123 3.83958 8.64123 4.69399V8.23957C8.64123 8.3777 8.52253 8.49026 8.37685 8.49026C8.23116 8.49026 8.11246 8.3777 8.11246 8.23957V4.69399C8.11246 3.70656 8.52253 2.7754 9.26174 2.07447C10.0063 1.37354 10.9937 0.994936 12.0405 1.00005C14.1664 1.0154 15.893 2.68842 15.893 4.72981V8.23445C15.893 8.3777 15.7797 8.49026 15.634 8.49026Z" fill="#231F20"/>
<path d="M8.39078 4.69434C8.39078 3.76912 8.77206 2.8997 9.46305 2.25C10.1528 1.6016 11.073 1.24619 12.0421 1.25684C14.0057 1.26792 15.6193 2.82452 15.6193 4.73535V8.23535C15.6215 8.23741 15.6263 8.24022 15.6339 8.24023C15.6378 8.24023 15.6399 8.2396 15.6408 8.23926L15.6427 8.23828V4.72949C15.6426 2.83476 14.036 1.26442 12.0382 1.25C11.0535 1.24544 10.1286 1.60178 9.43277 2.25684C8.7419 2.91242 8.36246 3.77876 8.36246 4.69434V8.23535C8.36475 8.2374 8.36958 8.24023 8.37711 8.24023L8.39078 8.23535V4.69434ZM8.89078 8.23926C8.89078 8.52773 8.64807 8.7401 8.37711 8.74023C8.10605 8.74023 7.86246 8.52783 7.86246 8.23926V4.69434C7.86246 3.63548 8.30309 2.63874 9.09 1.89258L9.24234 1.75684C10.0152 1.09763 11.0031 0.744922 12.0421 0.750001L12.2521 0.756837C14.4096 0.877717 16.1426 2.61002 16.1427 4.72949V8.23438C16.1427 8.5182 15.9152 8.74023 15.6339 8.74023C15.3629 8.7402 15.1193 8.5278 15.1193 8.23926V4.73535C15.1193 3.11608 13.7446 1.76641 12.0392 1.75684H12.0373C11.1942 1.74742 10.3988 2.05579 9.80484 2.61426C9.21166 3.172 8.89078 3.91073 8.89078 4.69434V8.23926Z" fill="#231F20"/>
<path d="M12.8772 9.95767H11.1182C10.7567 9.95767 10.4653 9.68139 10.4653 9.3386V7.91907C10.4653 7.57628 10.7567 7.3 11.1182 7.3H12.8772C13.2387 7.3 13.5301 7.57628 13.5301 7.91907V9.33349C13.5301 9.67628 13.2387 9.95767 12.8772 9.95767ZM11.1182 7.80139C11.0481 7.80139 10.9941 7.85256 10.9941 7.91907V9.33349C10.9941 9.4 11.0481 9.45116 11.1182 9.45116H12.8772C12.9473 9.45116 13.0013 9.4 13.0013 9.33349V7.91907C13.0013 7.85256 12.9473 7.80139 12.8772 7.80139H11.1182Z" fill="#231F20"/>
<path d="M13.2798 9.3332V7.91914C13.2798 7.75085 13.1525 7.59429 12.9624 7.55781L12.8774 7.55H11.1186C10.8825 7.55 10.7153 7.72678 10.7153 7.91914V9.33906C10.7156 9.53124 10.8827 9.70723 11.1186 9.70723H12.8774C13.1107 9.7071 13.2798 9.52811 13.2798 9.3332ZM11.2436 9.20137H12.7515V8.05098H11.2436V9.20137ZM13.2515 9.3332C13.2515 9.55005 13.0729 9.70124 12.8774 9.70137H11.1186C10.9231 9.70137 10.7436 9.55015 10.7436 9.3332V7.91914C10.7436 7.7022 10.9231 7.55 11.1186 7.55H12.8774C13.0729 7.55013 13.2515 7.70229 13.2515 7.91914V9.3332ZM13.7798 9.3332C13.7798 9.82373 13.3669 10.2071 12.8774 10.2072H11.1186C10.6319 10.2072 10.2156 9.83206 10.2153 9.33906V7.91914C10.2153 7.42592 10.6317 7.05 11.1186 7.05H12.8774L12.9673 7.05391C13.4143 7.09686 13.7798 7.45664 13.7798 7.91914V9.3332Z" fill="#231F20"/>
<path d="M8.89489 8.49029H7.84813C7.70245 8.49029 7.58375 8.37773 7.58375 8.23959C7.58375 8.10145 7.70245 7.98889 7.84813 7.98889H8.89489C9.04058 7.98889 9.15928 8.10145 9.15928 8.23959C9.15928 8.37773 9.04058 8.49029 8.89489 8.49029Z" fill="#231F20"/>
<path d="M8.89527 7.73889C9.16618 7.73909 9.40894 7.95143 9.40894 8.23987C9.40878 8.52816 9.16609 8.73967 8.89527 8.73987H7.8484C7.61133 8.73987 7.3949 8.5781 7.34449 8.34436L7.33375 8.23987L7.34449 8.13538C7.39469 7.90135 7.61115 7.73889 7.8484 7.73889H8.89527ZM7.84644 8.23889L7.8484 8.23987H8.89527L8.89625 8.23889H7.84644Z" fill="#231F20"/>
<path d="M16.1522 8.49029H15.1054C14.9597 8.49029 14.841 8.37773 14.841 8.23959C14.841 8.10145 14.9597 7.98889 15.1054 7.98889H16.1522C16.2979 7.98889 16.4166 8.10145 16.4166 8.23959C16.4166 8.37773 16.2979 8.49029 16.1522 8.49029Z" fill="#231F20"/>
<path d="M16.1526 7.73889C16.4235 7.73909 16.6662 7.95143 16.6662 8.23987C16.6661 8.52816 16.4234 8.73967 16.1526 8.73987H15.1057C14.8686 8.73987 14.6522 8.5781 14.6018 8.34436L14.591 8.23987L14.6018 8.13538C14.652 7.90135 14.8684 7.73889 15.1057 7.73889H16.1526ZM15.1037 8.23889L15.1057 8.23987H16.1526L16.1535 8.23889H15.1037Z" fill="#231F20"/>
</svg>
