<svg width="24" height="24" viewBox="0 0 24 24" fill="none" xmlns="http://www.w3.org/2000/svg">
<path d="M17.5 4.27246C17.4999 3.19926 16.7986 2.5 16.125 2.5H7.875C7.20135 2.5 6.50012 3.19926 6.5 4.27246V19.7275C6.50012 20.8007 7.20135 21.5 7.875 21.5H16.125C16.7986 21.5 17.4999 20.8007 17.5 19.7275V4.27246ZM16.0527 18.167C16.3289 18.167 16.5527 18.3909 16.5527 18.667C16.5526 18.943 16.3287 19.167 16.0527 19.167H7.94727C7.67131 19.1669 7.44745 18.9429 7.44727 18.667C7.44727 18.3909 7.6712 18.1671 7.94727 18.167H16.0527ZM18.5 19.7275C18.4999 21.1645 17.5223 22.5 16.125 22.5H7.875C6.47772 22.5 5.50012 21.1645 5.5 19.7275V4.27246C5.50012 2.83553 6.47772 1.5 7.875 1.5H16.125C17.5223 1.5 18.4999 2.83553 18.5 4.27246V19.7275Z" fill="#231F20"/>
<path d="M13 5.75C13 6.16421 12.6642 6.5 12.25 6.5C11.8358 6.5 11.5 6.16421 11.5 5.75C11.5 5.33579 11.8358 5 12.25 5C12.6642 5 13 5.33579 13 5.75Z" fill="#231F20"/>
</svg>
