<svg width="24" height="24" viewBox="0 0 24 24" fill="none" xmlns="http://www.w3.org/2000/svg">
<path d="M1.86083 18.3734C1.77058 18.3734 1.6819 18.3396 1.61376 18.2754C1.51416 18.1822 1.47489 18.0405 1.51182 17.9086L2.39787 14.7565C1.48269 13.4704 1 11.9808 1 10.4367C1 9.36051 1.23172 8.31681 1.6884 7.33464C2.12818 6.38887 2.75702 5.53998 3.55752 4.8118C5.19647 3.32113 7.37299 2.5 9.68656 2.5C12.0001 2.5 14.1766 3.32113 15.8156 4.8118C16.6161 5.53998 17.2449 6.38887 17.6847 7.33464C18.1414 8.31707 18.3731 9.36051 18.3731 10.4367C18.3731 11.5128 18.1414 12.5563 17.6847 13.5387C17.2449 14.4845 16.6161 15.3334 15.8156 16.0616C14.1766 17.5525 11.9999 18.3734 9.68656 18.3734C8.07283 18.3734 6.50462 17.9683 5.13873 17.2L1.98462 18.3514C1.94431 18.366 1.90218 18.3734 1.86083 18.3734ZM5.1728 16.4342C5.23626 16.4342 5.29972 16.4509 5.35589 16.4839C6.64505 17.2422 8.14253 17.6428 9.68656 17.6428C11.8199 17.6428 13.824 16.8887 15.3293 15.5193C16.8244 14.1593 17.6478 12.3541 17.6478 10.4364C17.6478 8.51869 16.8244 6.71329 15.3293 5.35329C13.824 3.98386 11.8199 3.22975 9.68656 3.22975C7.55321 3.22975 5.54938 3.98386 4.04385 5.35329C2.54871 6.71329 1.72533 8.51843 1.72533 10.4364C1.72533 11.8802 2.19554 13.2729 3.08497 14.4646C3.15311 14.5557 3.17496 14.6738 3.14401 14.7835L2.40255 17.4216L5.04927 16.4556C5.08932 16.441 5.13119 16.4342 5.1728 16.4342Z" fill="#231F20"/>
<path d="M18.2734 10.4365C18.2734 9.3751 18.0443 8.34623 17.5938 7.37695C17.1598 6.44368 16.5391 5.60532 15.748 4.88574C14.1284 3.41271 11.9763 2.59961 9.68652 2.59961C7.39671 2.59962 5.24465 3.41269 3.625 4.88574C2.83397 5.60532 2.21326 6.44368 1.7793 7.37695C1.32875 8.34595 1.09963 9.3751 1.09961 10.4365C1.09961 11.9592 1.57611 13.4286 2.47949 14.6982L2.50684 14.7373L2.49414 14.7832L1.6084 17.9355C1.58149 18.0317 1.60977 18.1346 1.68164 18.2021C1.73071 18.2483 1.7952 18.2733 1.86035 18.2734C1.88971 18.2734 1.9209 18.2684 1.9502 18.2578L5.10449 17.1064L5.14746 17.0898L5.1875 17.1133C6.53797 17.8729 8.08948 18.2734 9.68652 18.2734C11.9762 18.2734 14.1284 17.4607 15.748 15.9873C16.5391 15.2677 17.1598 14.4294 17.5938 13.4961C18.0443 12.5268 18.2734 11.4979 18.2734 10.4365ZM17.5479 10.4365C17.5479 8.54867 16.7372 6.76993 15.2617 5.42773C13.7758 4.07592 11.7963 3.33008 9.68652 3.33008C7.57676 3.33009 5.5975 4.07592 4.11133 5.42773C2.63584 6.76993 1.8252 8.54842 1.8252 10.4365C1.82522 11.8579 2.28826 13.2295 3.16504 14.4043C3.25184 14.5204 3.27957 14.671 3.24023 14.8105L2.55176 17.2598L5.01465 16.3613C5.0661 16.3425 5.11993 16.334 5.17285 16.334H5.27246V16.3457C5.31892 16.356 5.36424 16.3728 5.40625 16.3975C6.67952 17.1464 8.15972 17.543 9.68652 17.543C11.7962 17.543 13.7758 16.797 15.2617 15.4453C16.7373 14.1031 17.5478 12.3244 17.5479 10.4365ZM17.748 10.4365C17.748 12.384 16.911 14.215 15.3965 15.5928C13.8718 16.9798 11.8434 17.7432 9.68652 17.7432C8.12547 17.7432 6.6106 17.3378 5.30566 16.5703C5.2651 16.5465 5.21877 16.5342 5.17285 16.5342C5.14262 16.5342 5.11257 16.5394 5.08398 16.5498L2.43652 17.5156L2.25391 17.582L3.04785 14.7568C3.06478 14.6968 3.05958 14.633 3.03516 14.5771L3.00488 14.5244C2.10299 13.3161 1.62502 11.9025 1.625 10.4365C1.625 8.4887 2.46186 6.6571 3.97656 5.2793C5.50145 3.89227 7.52963 3.12989 9.68652 3.12988C11.8434 3.12988 13.8718 3.89228 15.3965 5.2793C16.9112 6.6571 17.748 8.48897 17.748 10.4365ZM18.4727 10.4365C18.4727 11.5274 18.2382 12.5855 17.7754 13.5811C17.3298 14.5393 16.6927 15.399 15.8828 16.1357C14.2246 17.6441 12.0234 18.4736 9.68652 18.4736C8.07174 18.4736 6.50178 18.0711 5.12988 17.3086L2.01855 18.4453C1.96756 18.4638 1.91432 18.4736 1.86133 18.4736C1.74617 18.4736 1.632 18.4306 1.54492 18.3486C1.41842 18.2298 1.36837 18.0491 1.41504 17.8818L2.28906 14.7744C1.3803 13.4808 0.900391 11.9861 0.900391 10.4365C0.900412 9.34574 1.1349 8.28722 1.59766 7.29199C2.0432 6.33396 2.68049 5.47493 3.49023 4.73828C5.14846 3.23009 7.34928 2.4004 9.68652 2.40039C12.0238 2.40039 14.2246 3.23008 15.8828 4.73828C16.6926 5.47493 17.3298 6.33395 17.7754 7.29199C18.238 8.28736 18.4726 9.34587 18.4727 10.4365Z" fill="#231F20"/>
<path d="M22.309 21.5C22.2677 21.5 22.2258 21.4929 22.1855 21.478L20.159 20.7383C19.2519 21.2371 18.2158 21.4998 17.1506 21.4998C16.1498 21.4998 15.1623 21.2644 14.2945 20.8192C13.4493 20.3856 12.7281 19.7603 12.2087 19.0109C12.0941 18.8455 12.1344 18.6179 12.2987 18.5025C12.4631 18.387 12.6891 18.4276 12.8038 18.593C13.2553 19.2445 13.8849 19.7891 14.624 20.1686C15.3902 20.5616 16.264 20.7695 17.1508 20.7695C18.1466 20.7695 19.1123 20.5113 19.9432 20.0224C20.0363 19.9677 20.1484 19.9575 20.2498 19.9944L21.7678 20.5485L21.3444 19.0432C21.3135 18.9334 21.3353 18.8154 21.4035 18.7242C21.9735 17.9604 22.275 17.0681 22.275 16.1438C22.275 15.2195 21.9592 14.2839 21.3616 13.5078C20.772 12.7422 19.9536 12.1607 18.9947 11.8265C18.8054 11.7606 18.705 11.5527 18.7705 11.362C18.8361 11.1714 19.0428 11.0706 19.2319 11.1363C20.3244 11.517 21.2591 12.1824 21.9351 13.0603C22.632 13.9655 23.0003 15.0317 23.0003 16.1435C23.0003 17.1678 22.6861 18.1566 22.0903 19.0144L22.6586 21.035C22.6955 21.1667 22.6562 21.3083 22.5566 21.4018C22.4885 21.4657 22.3993 21.5 22.309 21.5Z" fill="#231F20"/>
<path d="M22.9003 16.1436C22.9003 15.0545 22.5393 14.0093 21.8553 13.1211C21.1919 12.2595 20.274 11.6051 19.1991 11.2305C19.0627 11.1831 18.9128 11.256 18.8651 11.3946C18.8174 11.5335 18.8905 11.6846 19.0272 11.7325C20.0035 12.0726 20.8392 12.6655 21.4413 13.4473C22.0518 14.2404 22.3748 15.197 22.3749 16.1436C22.3749 17.0902 22.0658 18.0037 21.4833 18.7842C21.434 18.8502 21.418 18.936 21.4403 19.0157L21.9169 20.709L21.7333 20.6426L20.2157 20.0879C20.1424 20.0613 20.0613 20.069 19.994 20.1084C19.1473 20.6066 18.1641 20.8691 17.1512 20.8692C16.249 20.8692 15.3587 20.6583 14.578 20.2578C13.8252 19.8714 13.1828 19.3159 12.7216 18.6504C12.6384 18.5304 12.4751 18.5008 12.3563 18.584C12.2371 18.6678 12.2074 18.8337 12.2909 18.9541C12.8004 19.6893 13.5086 20.3041 14.3397 20.7305C15.193 21.1682 16.1651 21.3994 17.1503 21.3994C18.1991 21.3994 19.2193 21.1409 20.1112 20.6504L20.1503 20.6289L20.1932 20.6446L22.2196 21.3838C22.2447 21.3931 22.2716 21.3983 22.2977 21.3994H22.3094C22.3745 21.3994 22.4388 21.3753 22.4882 21.3291C22.5603 21.2614 22.589 21.1583 22.5624 21.0625L21.994 19.041L21.9813 18.9961L22.0087 18.9571C22.593 18.1157 22.9003 17.1468 22.9003 16.1436ZM23.1005 16.1436C23.1005 17.1729 22.7875 18.1655 22.1981 19.0303L22.7548 21.0078C22.8017 21.1753 22.7518 21.3555 22.6249 21.4746C22.5451 21.5494 22.4432 21.5902 22.3378 21.5967L22.3329 21.5996H22.3094C22.2568 21.5996 22.203 21.5905 22.1512 21.5713L20.1659 20.8467C19.2534 21.3395 18.216 21.5996 17.1503 21.5996C16.1342 21.5996 15.1311 21.3607 14.2489 20.9082C13.3899 20.4675 12.6559 19.8317 12.1268 19.0684C11.981 18.8579 12.0318 18.5682 12.2411 18.4209C12.451 18.2734 12.7395 18.3254 12.8856 18.5362C13.3272 19.1734 13.9446 19.7068 14.6698 20.0791C15.4214 20.4647 16.2798 20.67 17.1512 20.67C18.1296 20.6699 19.0776 20.4159 19.8925 19.9366C20.0113 19.8667 20.1546 19.8533 20.2841 19.9004L21.618 20.3867L21.2479 19.0703C21.2086 18.9308 21.2363 18.7802 21.3231 18.6641C21.8807 17.917 22.1747 17.0456 22.1747 16.1436C22.1746 15.2419 21.8665 14.3273 21.2821 13.5684C20.705 12.8192 19.9031 12.2489 18.9618 11.9209C18.72 11.8367 18.5924 11.5714 18.6757 11.3291C18.7592 11.0867 19.0229 10.9581 19.2645 11.042C20.3746 11.4288 21.3262 12.105 22.0145 12.9991C22.7246 13.9212 23.1005 15.0091 23.1005 16.1436Z" fill="#231F20"/>
<path d="M12.4498 13.0061H4.99805C4.7978 13.0061 4.63525 12.8427 4.63525 12.6408C4.63525 12.439 4.79754 12.2756 4.99805 12.2756H12.4498C12.6501 12.2756 12.8126 12.439 12.8126 12.6408C12.8126 12.8427 12.6503 13.0061 12.4498 13.0061Z" fill="#231F20"/>
<path d="M12.7124 12.6408C12.7124 12.4936 12.5941 12.3752 12.4497 12.3752H4.99854C4.8539 12.3752 4.73488 12.4935 4.73486 12.6408C4.73486 12.7881 4.8541 12.9064 4.99854 12.9064H12.4497C12.5944 12.9064 12.7124 12.7881 12.7124 12.6408ZM12.9126 12.6408C12.9126 12.8973 12.7061 13.1057 12.4497 13.1057H4.99854C4.74246 13.1057 4.53564 12.8973 4.53564 12.6408C4.53566 12.3844 4.74217 12.176 4.99854 12.176H12.4497C12.7058 12.176 12.9126 12.3843 12.9126 12.6408Z" fill="#231F20"/>
<path d="M14.3751 10.8019H4.99805C4.7978 10.8019 4.63525 10.6386 4.63525 10.4367C4.63525 10.2348 4.79754 10.0714 4.99805 10.0714H14.3751C14.5753 10.0714 14.7379 10.2348 14.7379 10.4367C14.7379 10.6386 14.5756 10.8019 14.3751 10.8019Z" fill="#231F20"/>
<path d="M14.6382 10.4366C14.6382 10.2896 14.5197 10.1712 14.3755 10.171H4.99854C4.8539 10.171 4.73488 10.2894 4.73486 10.4366C4.73486 10.5839 4.8541 10.7023 4.99854 10.7023H14.3755C14.52 10.7021 14.6382 10.5838 14.6382 10.4366ZM14.8374 10.4366C14.8374 10.693 14.6317 10.9013 14.3755 10.9015H4.99854C4.74246 10.9015 4.53564 10.6932 4.53564 10.4366C4.53566 10.1802 4.74217 9.9718 4.99854 9.9718H14.3755C14.6314 9.97202 14.8374 10.1803 14.8374 10.4366Z" fill="#231F20"/>
<path d="M14.3751 8.59776H4.99805C4.7978 8.59776 4.63525 8.43437 4.63525 8.23249C4.63525 8.03061 4.79754 7.86722 4.99805 7.86722H14.3751C14.5753 7.86722 14.7379 8.03061 14.7379 8.23249C14.7379 8.43437 14.5756 8.59776 14.3751 8.59776Z" fill="#231F20"/>
<path d="M14.6382 8.23245C14.6382 8.08536 14.5197 7.96704 14.3755 7.96683H4.99854C4.8539 7.96683 4.73488 8.08518 4.73486 8.23245C4.73486 8.3797 4.8541 8.49808 4.99854 8.49808H14.3755C14.52 8.49786 14.6382 8.37961 14.6382 8.23245ZM14.8374 8.23245C14.8374 8.48879 14.6317 8.69708 14.3755 8.6973H4.99854C4.74246 8.6973 4.53564 8.48897 4.53564 8.23245C4.53566 7.976 4.74217 7.76761 4.99854 7.76761H14.3755C14.6314 7.76782 14.8374 7.97609 14.8374 8.23245Z" fill="#231F20"/>
</svg>
