<svg width="24" height="24" viewBox="0 0 24 24" fill="none" xmlns="http://www.w3.org/2000/svg">
<path d="M11.8384 14.8083C11.6601 14.8083 11.5097 14.8689 11.3873 14.9894C11.2646 15.1101 11.2035 15.2613 11.2035 15.4434C11.2035 15.6255 11.2649 15.7722 11.3873 15.8948C11.5097 16.0175 11.6601 16.0785 11.8384 16.0785C12.0167 16.0785 12.1719 16.0172 12.2925 15.8948C12.413 15.7724 12.4736 15.6217 12.4736 15.4434C12.4736 15.2651 12.413 15.1099 12.2925 14.9894C12.1719 14.8689 12.0205 14.8083 11.8384 14.8083Z" fill="#231F20"/>
<path d="M14.0979 8.90472C13.8991 8.60189 13.6224 8.3625 13.2677 8.18585C12.913 8.00943 12.5014 7.92123 12.0335 7.92123C11.5134 7.92123 11.0788 8.01604 10.7297 8.20542C10.3804 8.39481 10.1139 8.64858 9.93019 8.96604C9.74646 9.28373 9.63962 9.63184 9.60991 10.0106L9.60425 10.083H10.5571L10.5625 10.0274C10.5884 9.77854 10.6608 9.56203 10.7797 9.3783C10.8986 9.19458 11.0611 9.05047 11.2672 8.94646C11.4733 8.84245 11.7158 8.79033 11.9943 8.79033C12.2729 8.79033 12.5087 8.84151 12.7132 8.94363C12.9175 9.04575 13.0762 9.18679 13.1896 9.36698C13.3028 9.54717 13.3597 9.75425 13.3597 9.98821V9.99387C13.3597 10.1908 13.33 10.3656 13.2705 10.5177C13.2111 10.67 13.1156 10.8101 12.9835 10.9382C12.8517 11.0665 12.6778 11.1974 12.4625 11.3311C12.2099 11.4835 12.0009 11.6432 11.8356 11.8104C11.6703 11.9776 11.5479 12.1604 11.4679 12.3592C11.388 12.558 11.3481 12.78 11.3481 13.025V13.5377H12.3231V13.1755C12.3231 12.9788 12.35 12.8078 12.404 12.6627C12.4578 12.5179 12.5507 12.3823 12.6825 12.2559C12.8144 12.1297 12.9974 11.9979 13.2316 11.8604C13.588 11.645 13.8712 11.3804 14.0811 11.0663C14.2908 10.7524 14.396 10.3781 14.396 9.9434V9.93774C14.396 9.55141 14.2965 9.20731 14.0979 8.90472Z" fill="#231F20"/>
<path d="M2.09009 22C1.97581 22 1.86351 21.9574 1.77722 21.8766C1.65109 21.7592 1.60136 21.5807 1.64812 21.4144L2.77016 17.4429C1.61124 15.8224 1 13.9455 1 12C1 10.6441 1.29343 9.32902 1.87174 8.09152C2.42864 6.89987 3.22496 5.83029 4.23865 4.9128C6.31409 3.03461 9.07027 2 12 2C14.9297 2 17.6859 3.03461 19.7614 4.9128C20.775 5.83029 21.5714 6.89987 22.1283 8.09152C22.7066 9.32935 23 10.6441 23 12C23 13.3559 22.7066 14.6706 22.1283 15.9085C21.5714 17.1001 20.775 18.1697 19.7614 19.0872C17.6859 20.9657 14.9294 22 12 22C9.9565 22 7.97063 21.4896 6.24098 20.5217L2.24685 21.9723C2.1958 21.9908 2.14245 22 2.09009 22ZM6.28412 19.5567C6.36448 19.5567 6.44484 19.5778 6.51597 19.6193C8.14847 20.5748 10.0448 21.0795 12 21.0795C14.7015 21.0795 17.2393 20.1294 19.1455 18.4039C21.0388 16.6904 22.0815 14.416 22.0815 11.9997C22.0815 9.58339 21.0388 7.30863 19.1455 5.59506C17.2393 3.86962 14.7015 2.91947 12 2.91947C9.29849 2.91947 6.761 3.86962 4.8545 5.59506C2.96117 7.30863 1.91851 9.58306 1.91851 11.9997C1.91851 13.8188 2.51394 15.5736 3.64025 17.0751C3.72654 17.1899 3.7542 17.3387 3.71501 17.4769L2.77608 20.8008L6.12769 19.5837C6.17841 19.5652 6.23143 19.5567 6.28412 19.5567Z" fill="black"/>
</svg>
