<svg width="24" height="24" viewBox="0 0 24 24" fill="none" xmlns="http://www.w3.org/2000/svg">
<path d="M18.0092 22.5C17.8051 22.5 17.6001 22.4506 17.4108 22.3506L12.0001 19.4969L6.58949 22.3506C6.15513 22.5799 5.63848 22.5431 5.24099 22.2551C4.8435 21.967 4.6488 21.4879 4.73289 21.0052L5.78102 14.9896L1.38885 10.7367C1.03632 10.3953 0.911319 9.89372 1.0633 9.4276C1.21528 8.96148 1.61142 8.6286 2.09794 8.55952L8.15652 7.69502L10.8526 2.21331C11.0689 1.77321 11.5087 1.5 12.0001 1.5C12.4916 1.5 12.9309 1.77321 13.1476 2.21331L15.8437 7.69502L21.9023 8.55952C22.3888 8.62905 22.785 8.96148 22.9369 9.4276C23.0889 9.89372 22.9639 10.3953 22.6114 10.7367L18.2192 14.9887L19.2674 21.0043C19.3514 21.4875 19.1567 21.9661 18.7593 22.2542C18.5353 22.4166 18.2732 22.5 18.0092 22.5ZM12.0001 2.39724C11.9291 2.39724 11.7537 2.41788 11.6602 2.60855L8.75455 8.516L2.22564 9.44734C2.01476 9.4774 1.94102 9.63711 1.91898 9.70485C1.89695 9.77214 1.86278 9.94486 2.01566 10.0929L6.74912 14.6756L5.6196 21.1586C5.58318 21.3681 5.71267 21.4875 5.77023 21.5292C5.82778 21.5709 5.98157 21.657 6.16997 21.5574L12.0006 18.4821L17.8312 21.5574C18.0196 21.6566 18.1734 21.5709 18.2309 21.5292C18.2885 21.4875 18.418 21.3681 18.3815 21.1586L17.252 14.6756L21.9855 10.0929C22.1384 9.94486 22.1037 9.77214 22.0822 9.70485C22.0601 9.63756 21.9864 9.4774 21.7755 9.44734L15.2466 8.516L12.3401 2.60855C12.2461 2.41788 12.0712 2.39724 12.0001 2.39724Z" fill="#231F20"/>
</svg>
