<svg width="24" height="24" viewBox="0 0 24 24" fill="none" xmlns="http://www.w3.org/2000/svg">
<path d="M18.1498 11.5499H11.4758C11.2529 11.5499 11.0717 11.3707 11.0717 11.1503C11.0717 10.9298 11.2529 10.7507 11.4758 10.7507H18.1498C18.3727 10.7507 18.5539 10.9298 18.5539 11.1503C18.5539 11.3707 18.3727 11.5499 18.1498 11.5499Z" fill="#231F20"/>
<path d="M18.1498 13.6251H11.4758C11.2529 13.6251 11.0717 13.446 11.0717 13.2255C11.0717 13.0051 11.2529 12.8259 11.4758 12.8259H18.1498C18.3727 12.8259 18.5539 13.0051 18.5539 13.2255C18.5539 13.446 18.3727 13.6251 18.1498 13.6251Z" fill="#231F20"/>
<path d="M18.0705 18.5311H11.3965C11.1736 18.5311 10.9924 18.3445 10.9924 18.1149C10.9924 17.8852 11.1736 17.6986 11.3965 17.6986H18.0705C18.2935 17.6986 18.4746 17.8852 18.4746 18.1149C18.4746 18.3445 18.2935 18.5311 18.0705 18.5311Z" fill="#231F20"/>
<path d="M18.0705 20.6928H11.3965C11.1735 20.6928 10.9923 20.5062 10.9923 20.2766C10.9923 20.0469 11.1735 19.8603 11.3965 19.8603H18.0705C18.2934 19.8603 18.4746 20.0469 18.4746 20.2766C18.4746 20.5062 18.2934 20.6928 18.0705 20.6928Z" fill="#231F20"/>
<path d="M19.7345 23H4.26553C3.01633 23 2 22.0653 2 20.9165V3.08354C2 1.93469 3.01633 1 4.26553 1H19.7345C20.9837 1 22 1.93469 22 3.08354V20.9165C22 22.0653 20.9837 23 19.7345 23ZM4.26553 1.74925C3.46577 1.74925 2.81469 2.34803 2.81469 3.08354V20.9165C2.81469 21.652 3.46577 22.2507 4.26553 22.2507H19.7345C20.5342 22.2507 21.1853 21.652 21.1853 20.9165V3.08354C21.1853 2.34803 20.5342 1.74925 19.7345 1.74925H4.26553Z" fill="#231F20"/>
<path d="M21.9004 3.08398C21.9004 1.99808 20.9364 1.09961 19.7344 1.09961H4.26562C3.06361 1.09961 2.09961 1.99808 2.09961 3.08398V20.916C2.09961 22.0019 3.06361 22.9004 4.26562 22.9004H19.7344C20.9364 22.9004 21.9004 22.0019 21.9004 20.916V3.08398ZM21.085 3.08398C21.085 2.41142 20.487 1.84961 19.7344 1.84961H4.26562C3.51305 1.84961 2.91504 2.41142 2.91504 3.08398V20.916C2.91504 21.5886 3.51305 22.1504 4.26562 22.1504H19.7344C20.487 22.1504 21.085 21.5886 21.085 20.916V3.08398ZM21.2852 20.916C21.2852 21.7145 20.5813 22.3506 19.7344 22.3506H4.26562C3.41869 22.3506 2.71484 21.7145 2.71484 20.916V3.08398C2.71484 2.28552 3.41869 1.64941 4.26562 1.64941H19.7344C20.5813 1.64941 21.2852 2.28552 21.2852 3.08398V20.916ZM22.0996 20.916C22.0996 22.1278 21.0308 23.0996 19.7344 23.0996H4.26562C2.96925 23.0996 1.90039 22.1278 1.90039 20.916V3.08398C1.90039 1.87219 2.96925 0.900391 4.26562 0.900391H19.7344C21.0308 0.900391 22.0996 1.87219 22.0996 3.08398V20.916Z" fill="#231F20"/>
<path d="M18.1498 4.54986H11.4758C11.2529 4.54986 11.0717 4.37071 11.0717 4.15026C11.0717 3.92982 11.2529 3.75066 11.4758 3.75066H18.1498C18.3727 3.75066 18.5539 3.92982 18.5539 4.15026C18.5539 4.37071 18.3727 4.54986 18.1498 4.54986Z" fill="#231F20"/>
<path d="M18.1498 6.62512H11.4758C11.2529 6.62512 11.0717 6.44597 11.0717 6.22552C11.0717 6.00507 11.2529 5.82592 11.4758 5.82592H18.1498C18.3727 5.82592 18.5539 6.00507 18.5539 6.22552C18.5539 6.44597 18.3727 6.62512 18.1498 6.62512Z" fill="#231F20"/>
<path d="M8 1.5V22.5H7V1.5H8Z" fill="#231F20"/>
<path d="M21.8 8.5V9.5H2.79999V8.5H21.8Z" fill="#231F20"/>
<path d="M21.5 15V16H2.5V15H21.5Z" fill="#231F20"/>
</svg>
