<svg width="24" height="24" viewBox="0 0 24 24" fill="none" xmlns="http://www.w3.org/2000/svg">
<path fill-rule="evenodd" clip-rule="evenodd" d="M13.0993 1.5C14.1948 1.5 15.0829 2.39543 15.0829 3.5V20.5C15.0829 21.6046 14.1948 22.5 13.0993 22.5H3.48358C2.45643 22.5 1.61208 21.7128 1.51065 20.7041L1.5 20.5V3.5C1.5 2.39543 2.38808 1.5 3.48358 1.5H13.0993ZM3.48358 2.5C2.93583 2.5 2.49179 2.94772 2.49179 3.5V20.5C2.49179 21.0523 2.93583 21.5 3.48358 21.5H13.0993C13.647 21.5 14.0911 21.0523 14.0911 20.5V3.5C14.0911 2.94772 13.647 2.5 13.0993 2.5H3.48358Z" fill="black"/>
<path d="M17.0113 1.51074C18.0113 1.61332 18.7924 2.46459 18.7924 3.5V20.5L18.7818 20.7041C18.6871 21.6454 17.9448 22.3935 17.0113 22.4893L16.8088 22.5H13.4025V21.5H16.8088C17.3563 21.4996 17.8006 21.0521 17.8006 20.5V3.5C17.8006 2.94795 17.3563 2.50038 16.8088 2.5H13.4025V1.5H16.8088L17.0113 1.51074Z" fill="black"/>
<path d="M20.5164 1.5C21.6119 1.5 22.5 2.39543 22.5 3.5V20.5C22.5 21.6046 21.6119 22.5 20.5164 22.5H16.3768V21.5H20.5164C21.0641 21.5 21.5082 21.0523 21.5082 20.5V3.5C21.5082 2.94772 21.0641 2.5 20.5164 2.5H16.3768V1.5H20.5164Z" fill="black"/>
</svg>
