<svg version="1.1" width="24" height="24" viewBox="0 0 24 24" xmlns="http://www.w3.org/2000/svg">
<path d="m3 1.5c-1.0994 0-2 0.90065-2 2v17c0 1.0994 0.90065 2 2 2h18c1.0994 0 2-0.90065 2-2v-17c0-1.0994-0.90065-2-2-2zm0 1h18c0.56265 0 1 0.43735 1 1v17c0 0.56265-0.43735 1-1 1h-18c-0.56265 0-1-0.43735-1-1v-17c0-0.56265 0.43735-1 1-1z" fill="#231f20"/>
<path d="m19.638 5.6614c0-0.39313-0.2886-0.71135-0.6451-0.71135h-13.987c-0.35652 0-0.64511 0.31822-0.64511 0.71135v7.6772c0 0.3932 0.28859 0.7114 0.64511 0.7114h13.987c0.3565 0 0.6451-0.3182 0.6451-0.7114zm0.8616 7.6772c0 0.9173-0.6748 1.6614-1.5067 1.6614h-13.987c-0.83188 0-1.5067-0.7441-1.5067-1.6614v-7.6772c0-0.91729 0.67479-1.6614 1.5067-1.6614h13.987c0.8319 0 1.5067 0.74408 1.5067 1.6614z" fill="#231f20"/>
<path d="m7.9622 9.4864 2.1518 2.3728c0.1471 0.1621 0.1471 0.424 0 0.5862-0.14703 0.1621-0.38456 0.1621-0.53161 0l-1.865-2.0565-2.9629 3.8129c-0.13532 0.174-0.37269 0.1943-0.53059 0.0451-0.15788-0.1492-0.17624-0.4109-0.04098-0.585l3.4925-4.4929z" fill="#231f20"/>
<path d="m17.123 14.249-0.5631 0.5514-4.0031-4.9656-3.4872 4.9448-0.59468-0.5098 3.7656-5.3386 0.2784-0.39391z" fill="#231f20"/>
<path d="m17.164 8.2205c0-0.52417-0.3852-0.94886-0.8605-0.94886-0.4754 0-0.8605 0.42469-0.8605 0.94886 0 0.52416 0.3851 0.94885 0.8605 0.94885v0.83069c-0.8913 0-1.6139-0.79673-1.6139-1.7795 0-0.98282 0.7226-1.7796 1.6139-1.7796s1.6138 0.79673 1.6138 1.7796c0 0.98281-0.7225 1.7795-1.6138 1.7795v-0.83069c0.4753 0 0.8605-0.42469 0.8605-0.94885z"/>
<path d="m5.5065 17.677h12.987c0.1947 0 0.3593-0.168 0.3593-0.364s-0.1673-0.364-0.3593-0.364h-12.987c-0.1947 0-0.35923 0.168-0.35923 0.364s0.16727 0.364 0.35923 0.364z" fill="#231f20"/>
<path d="m18.706 17.313c0-0.1135-0.101-0.215-0.2122-0.215h-12.987c-0.1132 0-0.21223 0.1007-0.21223 0.215 4e-5 0.1135 0.10108 0.2149 0.21223 0.2149h12.987c0.1132 0 0.2122-0.1007 0.2122-0.2149zm0.2945 0c0 0.2777-0.2305 0.5122-0.5067 0.5122h-12.987c-0.2727 0-0.50665-0.2338-0.50669-0.5122 0-0.2778 0.2305-0.5132 0.50669-0.5132h12.987c0.2727 0 0.5067 0.2347 0.5067 0.5132z" fill="#231f20"/>
<path d="m7.4644 19.652h8.8793c0.1947 0 0.3592-0.168 0.3592-0.364s-0.1673-0.364-0.3592-0.364h-8.8793c-0.1947 0-0.35923 0.168-0.35923 0.364s0.16728 0.364 0.35923 0.364z" fill="#231f20"/>
<path d="m16.556 19.288c0-0.1136-0.102-0.215-0.2132-0.215h-8.8786c-0.1132 0-0.21224 0.1007-0.21224 0.215 5e-5 0.1135 0.10108 0.2149 0.21224 0.2149h8.8786c0.1132 0 0.2132-0.1007 0.2132-0.2149zm0.2935 0c0 0.2777-0.2305 0.5122-0.5067 0.5122h-8.8786c-0.27271 0-0.50665-0.2338-0.5067-0.5122 0-0.2778 0.2305-0.5132 0.5067-0.5132h8.8786c0.2727 0 0.5067 0.2347 0.5067 0.5132z" fill="#231f20"/>
</svg>