<svg width="24" height="24" viewBox="0 0 24 24" fill="none" xmlns="http://www.w3.org/2000/svg">
<path d="M3 4.5C3 4.22386 3.22386 4 3.5 4H20.5C20.7761 4 21 4.22386 21 4.5C21 4.77614 20.7761 5 20.5 5H3.5C3.22386 5 3 4.77614 3 4.5Z" fill="#231F20"/>
<path d="M3 10.5C3 10.2239 3.22386 10 3.5 10H20.5C20.7761 10 21 10.2239 21 10.5C21 10.7761 20.7761 11 20.5 11H3.5C3.22386 11 3 10.7761 3 10.5Z" fill="#231F20"/>
<path d="M3 7.5C3 7.22386 3.22386 7 3.5 7H16.5C16.7761 7 17 7.22386 17 7.5C17 7.77614 16.7761 8 16.5 8H3.5C3.22386 8 3 7.77614 3 7.5Z" fill="#231F20"/>
<path d="M3 13.5C3 13.2239 3.22386 13 3.5 13H11.5C11.7761 13 12 13.2239 12 13.5C12 13.7761 11.7761 14 11.5 14H3.5C3.22386 14 3 13.7761 3 13.5Z" fill="#231F20"/>
<path d="M3 16.5C3 16.2239 3.22386 16 3.5 16H14.5C14.7761 16 15 16.2239 15 16.5C15 16.7761 14.7761 17 14.5 17H3.5C3.22386 17 3 16.7761 3 16.5Z" fill="#231F20"/>
<path d="M3 19.5C3 19.2239 3.22386 19 3.5 19H20.5C20.7761 19 21 19.2239 21 19.5C21 19.7761 20.7761 20 20.5 20H3.5C3.22386 20 3 19.7761 3 19.5Z" fill="#231F20"/>
</svg>
