<svg width="24" height="24" viewBox="0 0 24 24" fill="none" xmlns="http://www.w3.org/2000/svg">
<path d="M20.1509 12.1826C20.1509 11.9504 20.3404 11.7619 20.5744 11.7614C20.809 11.7614 20.9996 11.9489 21.0001 12.1816L21.0144 19.1095V19.1105C21.0144 19.3427 20.825 19.5312 20.5909 19.5317C20.3563 19.5317 20.1658 19.3438 20.1652 19.1116L20.1509 12.1837V12.1826Z" fill="#231F20"/>
<path d="M2.6453 12.3857V8.20625C2.6453 7.97353 2.83914 7.78503 3.07846 7.78503C3.31778 7.78503 3.51162 7.97353 3.51162 8.20625V12.3857C3.51162 13.403 3.91879 14.3591 4.65841 15.0783C5.39803 15.7976 6.3813 16.1935 7.42739 16.1935C9.25261 16.1935 10.8613 14.9378 11.2522 13.2071C11.3036 12.9802 11.5343 12.8359 11.7682 12.8859C12.0021 12.9359 12.1494 13.1608 12.0985 13.3877C11.8684 14.4065 11.2809 15.3321 10.4443 15.9939C9.59535 16.6658 8.52436 17.0354 7.42739 17.0354C6.14956 17.0354 4.94917 16.5515 4.04603 15.6738C3.14289 14.7956 2.6453 13.6278 2.6453 12.3857Z" fill="#231F20"/>
<path d="M21.0172 10.6836V14.8631C21.0172 15.0958 20.8234 15.2843 20.584 15.2843C20.3447 15.2843 20.1509 15.0958 20.1509 14.8631V10.6836C20.1509 9.66638 19.7437 8.71022 19.0041 7.991C18.2645 7.27178 17.2812 6.87584 16.2351 6.87584C14.4099 6.87584 12.8012 8.13158 12.4103 9.86224C12.3589 10.0892 12.1282 10.2334 11.8943 10.1834C11.6604 10.1334 11.5131 9.90857 11.564 9.68165C11.7941 8.66284 12.3816 7.73722 13.2182 7.07539C14.0672 6.40356 15.1381 6.03394 16.2351 6.03394C17.5129 6.03394 18.7133 6.51781 19.6165 7.39551C20.5196 8.27374 21.0172 9.44155 21.0172 10.6836Z" fill="#231F20"/>
<path d="M9.52124 11.5285C9.52124 10.3196 10.5327 9.33557 11.7764 9.33557C13.0201 9.33557 14.0315 10.3191 14.0315 11.5285C14.0315 12.7379 13.0201 13.7214 11.7764 13.7214C10.5327 13.7214 9.52124 12.7379 9.52124 11.5285ZM13.1647 11.5285C13.1647 10.784 12.542 10.178 11.7758 10.178C11.0097 10.178 10.387 10.7835 10.387 11.5285C10.387 12.2735 11.0097 12.879 11.7758 12.879C12.5414 12.879 13.1647 12.273 13.1647 11.5285Z" fill="#231F20"/>
<path d="M1 6.44294C1 5.23406 2.01143 4.25 3.2546 4.25C4.49777 4.25 5.50974 5.23353 5.50974 6.44294C5.50974 7.65235 4.49831 8.63588 3.2546 8.63588C2.01089 8.63588 1 7.65235 1 6.44294ZM4.64342 6.44294C4.64342 5.69845 4.02075 5.09243 3.2546 5.09243C2.48845 5.09243 1.86578 5.69792 1.86578 6.44294C1.86578 7.18796 2.48845 7.79345 3.2546 7.79345C4.02075 7.79345 4.64342 7.18743 4.64342 6.44294Z" fill="#231F20"/>
<path d="M18.0784 15.9391C18.0784 15.7932 18.1558 15.6521 18.295 15.5737C18.5024 15.4573 18.7671 15.5263 18.8868 15.728L20.5274 18.4906L22.1929 15.7259C22.3136 15.5253 22.579 15.4579 22.7858 15.5753C22.9921 15.6927 23.0614 15.9507 22.9406 16.1518L20.8983 19.5415C20.8203 19.671 20.6774 19.7505 20.5231 19.75C20.3688 19.7495 20.2264 19.6695 20.1495 19.5394L18.1369 16.1497C18.0974 16.0834 18.0784 16.0102 18.0784 15.9391Z" fill="#231F20"/>
</svg>
