<?xml version="1.0" encoding="UTF-8" standalone="no"?>
<svg
   version="1.1"
   viewBox="0 0 80 15"
   id="svg219"
   width="80"
   height="15"
   xmlns="http://www.w3.org/2000/svg"
   xmlns:svg="http://www.w3.org/2000/svg">
  <!-- Generator: Adobe Illustrator 30.0.0, SVG Export Plug-In . SVG Version: 2.1.1 Build 123)  -->
  <defs
     id="defs184">
    <style
       id="style182">
      .st0 {
        isolation: isolate;
      }

      .st1 {
        mix-blend-mode: multiply;
      }

      .st2 {
        fill: #ff7778;
      }

      .st3 {
        fill: #fff;
      }

      .st4 {
        fill: #fffdfe;
      }
    </style>
  </defs>
  <g
     id="g494"
     transform="matrix(0.09500059,0,0,0.09500059,0,-0.1130507)">
    <g
       class="st1"
       id="g188"
       style="isolation:isolate">
      <path
         class="st4"
         d="m 47.89,1.19 v 109.2 c 0,24.84 -21.45,44.96 -47.89,44.96 V 46.15 C 0,21.32 21.45,1.19 47.89,1.19 Z"
         id="path186" />
    </g>
    <g
       class="st1"
       id="g192"
       style="isolation:isolate">
      <path
         class="st4"
         d="m 100.14,155.36 c -26.45,0 -47.89,-20.13 -47.89,-44.96 V 1.19 c 26.45,0 47.89,20.13 47.89,44.96 v 109.2 0 z"
         id="path190" />
    </g>
    <g
       class="st1"
       id="g196"
       style="isolation:isolate">
      <path
         class="st4"
         d="m 152.38,110.39 c 0,24.84 -21.44,44.96 -47.89,44.96 V 46.15 c 0,-24.84 21.44,-44.96 47.89,-44.96 z"
         id="path194" />
    </g>
    <path
       class="st2"
       d="m 204.63,155.36 c -26.45,0 -47.89,-20.13 -47.89,-44.96 V 1.19 c 26.45,0 47.89,20.13 47.89,44.96 v 109.2 0 z"
       id="path198"
       style="isolation:isolate" />
    <path
       class="st3"
       d="m 504.96,123.18 c 7.07,6.68 21.65,13.35 33.76,13.35 11.11,0 16.4,-3.86 16.4,-9.89 0,-6.85 -8.5,-9.28 -19.62,-11.53 -16.79,-3.25 -38.44,-7.28 -38.44,-30.52 0,-16.39 14.36,-30.7 40.05,-30.7 16.58,0 29.73,5.64 39.23,13.35 L 566.23,84.8 c -5.86,-6.25 -17.01,-11.32 -28.9,-11.32 -9.29,0 -15.36,3.43 -15.36,9.1 0,6.07 7.68,8.28 18.61,10.5 16.79,3.25 39.23,7.68 39.23,31.92 0,17.99 -15.18,31.31 -42.27,31.31 -17.01,0 -33.37,-5.68 -43.7,-15.17 l 11.11,-17.99 v 0.03 z"
       id="path200"
       style="isolation:isolate" />
    <path
       class="st3"
       d="m 660.2,153.89 v -10.1 c -6.68,7.89 -18.19,12.53 -30.94,12.53 -15.58,0 -33.98,-10.5 -33.98,-32.35 0,-21.85 18.4,-31.13 33.98,-31.13 12.93,0 24.47,4.03 30.94,11.92 V 91.23 c 0,-9.89 -8.5,-16.39 -21.44,-16.39 -10.51,0 -20.22,3.86 -28.51,11.53 L 600.53,69.2 c 11.93,-10.5 27.3,-15.35 42.66,-15.35 22.26,0 42.66,8.89 42.66,36.99 v 63.05 h -25.69 0.03 z m 0,-35.56 c -4.25,-5.68 -12.33,-8.5 -20.61,-8.5 -10.11,0 -18.4,5.46 -18.4,14.74 0,9.28 8.29,14.35 18.4,14.35 8.29,0 16.4,-2.82 20.61,-8.5 v -12.14 0.04 z"
       id="path202"
       style="isolation:isolate" />
    <path
       class="st3"
       d="m 705.86,26.57 c 0,-8.5 7.07,-15.35 15.36,-15.35 8.29,0 15.36,6.89 15.36,15.35 0,8.46 -6.86,15.35 -15.36,15.35 -8.5,0 -15.36,-6.89 -15.36,-15.35 z m 2.61,127.32 V 56.28 h 25.69 v 97.61 z"
       id="path204"
       style="isolation:isolate" />
    <path
       class="st3"
       d="m 803.48,53.85 c 20.01,0 32.16,8.68 38.62,17.78 L 825.31,87.2 c -4.65,-6.68 -11.72,-10.5 -20.62,-10.5 -15.58,0 -26.51,11.32 -26.51,28.28 0,16.96 10.93,28.49 26.51,28.49 8.9,0 15.97,-4.03 20.62,-10.5 l 16.79,15.57 c -6.47,9.1 -18.61,17.78 -38.62,17.78 -30.12,0 -51.77,-21.21 -51.77,-51.34 0,-30.13 21.65,-51.12 51.77,-51.12 z"
       id="path206"
       style="isolation:isolate" />
    <path
       class="st3"
       d="m 349.36,154.71 v -62.8 c 0,-9.1 -4.04,-15.57 -14.58,-15.57 -9.11,0 -16.58,6.07 -20.22,11.32 v 65.87 h -25.9 V 91.91 c 0,-9.1 -4.04,-15.57 -14.58,-15.57 -8.9,0 -16.4,6.07 -20.22,11.53 v 65.69 h -25.65 v -97.6 h 25.69 v 12.75 c 4.04,-5.86 17.01,-15.14 31.94,-15.14 14.93,0 23.47,6.68 27.12,17.78 5.68,-8.89 18.61,-17.78 33.58,-17.78 18.01,0 28.73,6.64 28.73,26.67 v 73.37 l -25.9,1.14 v -0.04 z"
       id="path208"
       style="isolation:isolate" />
    <path
       class="st3"
       d="m 434.57,56.03 c 0,0 -26.26,-1.14 -39.23,20.74 l -4.64,7.18 v 44.02 l 26.12,-39.88 0.5,-0.68 c 2.11,-3.18 7.72,-8.28 17.47,-8.28 14.29,0 26.37,12.46 26.37,27.2 0,14.74 -12.08,27.42 -26.37,27.42 0,0 -5.22,0.11 -10.72,-2.89 -4.36,-2.43 -8.97,-6.36 -12.75,-11.89 -0.39,-0.5 -1.14,-0.5 -1.47,0 l -11.97,17.85 c -0.5,0.79 -0.5,1.82 0.11,2.61 13.51,17.74 36.41,16.89 36.62,16.89 28.4,0 52.17,-22.96 52.17,-50.27 0,-27.31 -23.76,-49.98 -52.17,-49.98 z"
       id="path210"
       style="isolation:isolate" />
    <path
       class="st3"
       d="M 803.1,32.67 V 15.25 h -6.28 v -4.02 h 17.13 v 4.02 h -6.25 v 17.43 h -4.6 z"
       id="path212"
       style="isolation:isolate" />
    <path
       class="st3"
       d="M 836.52,32.67 V 17.23 l -6.07,15.44 h -1.99 l -6.04,-15.44 v 15.44 h -4.58 V 11.22 h 6.41 l 5.23,13.38 5.23,-13.38 h 6.43 v 21.45 h -4.63 z"
       id="path214"
       style="isolation:isolate" />
  </g>
</svg>
