<?xml version="1.0" encoding="UTF-8" standalone="no"?>
<svg
   version="1.1"
   id="Layer_1"
   x="0px"
   y="0px"
   width="148"
   height="64"
   viewBox="0 0 148 64"
   enable-background="new 0 0 64 64"
   xml:space="preserve"
   xmlns="http://www.w3.org/2000/svg"
   xmlns:svg="http://www.w3.org/2000/svg"><defs
     id="defs193" /><style
     id="style182">.style0{fill:	#0073aa;}</style><path
     d="m 4.548,31.999 c 0,10.9 6.3,20.3 15.5,24.706 L 6.925,20.827 C 5.402,24.2 4.5,28 4.5,31.999 Z m 45.983,-1.385 c 0,-3.394 -1.219,-5.742 -2.264,-7.57 -1.391,-2.263 -2.695,-4.177 -2.695,-6.439 0,-2.523 1.912,-4.872 4.609,-4.872 0.121,0 0.2,0 0.4,0.022 C 45.653,7.3 39.1,4.5 32,4.548 c -9.591,0 -18.027,4.921 -22.936,12.4 0.645,0 1.3,0 1.8,0.033 2.871,0 7.316,-0.349 7.316,-0.349 1.479,-0.086 1.7,2.1 0.2,2.3 0,0 -1.487,0.174 -3.142,0.261 l 9.997,29.735 6.008,-18.017 -4.276,-11.718 c -1.479,-0.087 -2.879,-0.261 -2.879,-0.261 -1.48,-0.087 -1.306,-2.349 0.174,-2.262 0,0 4.5,0.3 7.2,0.349 2.87,0 7.317,-0.349 7.317,-0.349 1.479,-0.086 1.7,2.1 0.2,2.262 0,0 -1.489,0.174 -3.142,0.261 l 9.92,29.508 2.739,-9.148 C 49.628,35.7 50.5,33 50.5,30.614 Z M 32.481,34.4 24.244,58.334 c 2.46,0.7 5.1,1.1 7.8,1.1 3.197,0 6.262,-0.552 9.116,-1.556 -0.072,-0.118 -0.141,-0.243 -0.196,-0.379 z M 56.088,18.8 c 0.119,0.9 0.2,1.8 0.2,2.823 0,2.785 -0.521,5.916 -2.088,9.832 l -8.385,24.242 c 8.161,-4.758 13.65,-13.6 13.65,-23.728 C 59.451,27.2 58.2,22.7 56.1,18.83 Z M 32,0 C 14.355,0 0,14.355 0,32 0,49.6 14.4,64 32,64 49.6,64 64,49.645 64,31.999 64,14.4 49.6,0 32,0 Z m 0,62.533 C 15.165,62.533 1.467,48.835 1.467,31.999 1.467,15.2 15.2,1.5 32,1.5 48.8,1.5 62.534,15.2 62.5,32.032 62.533,48.8 48.8,62.5 32,62.533 Z"
     class="style0"
     id="path184" /><path
     style="fill:#ff7778;fill-opacity:1;stroke-width:0.0914238"
     d="M 146.21724,57.523282 C 139.84038,56.69892 134.8202,52.091371 133.35205,45.71554 l -0.20333,-0.883024 -0.0271,-19.235635 -0.0271,-19.2356371 0.98447,0.05251 c 3.79525,0.2024333 7.75247,2.175793 10.23061,5.1017281 2.16868,2.56057 3.34225,5.399187 3.59948,8.706363 0.0505,0.649443 0.0876,8.680275 0.0888,19.239524 l 0.002,18.124766 -0.75424,-0.0137 c -0.41484,-0.0075 -0.87767,-0.02965 -1.02852,-0.04915 z"
     id="path730" /><path
     style="fill:#231f20;fill-opacity:1;stroke-width:0.0914238"
     d="m 116.644,39.291047 c 10e-4,-11.128778 0.0373,-18.773195 0.0907,-19.325801 0.63181,-6.541565 5.31574,-11.8828852 11.65586,-13.2917478 0.77295,-0.1717606 2.39208,-0.3761092 2.98004,-0.3761092 h 0.26458 v 18.91564 c 0,18.541699 -0.004,18.936929 -0.18412,19.992616 -0.96596,5.650258 -5.10761,10.275776 -10.62804,11.869696 -1.00155,0.289178 -2.13636,0.484004 -3.28996,0.564822 l -0.89138,0.06245 z"
     id="path728" /><path
     style="fill:#231f20;fill-opacity:1;stroke-width:0.0914238"
     d="m 113.74826,57.583891 c -1.65067,-0.173886 -3.46957,-0.70193 -5.01478,-1.455843 C 104.61,54.116189 101.69511,50.37426 100.62233,45.71554 l -0.20334,-0.883024 -0.027,-19.267563 -0.0271,-19.267564 0.29878,0.00158 c 1.15562,0.00613 3.06231,0.3344392 4.32144,0.7441028 5.684,1.8493287 9.71122,6.9127652 10.28154,12.9270052 0.0619,0.653292 0.0949,7.373965 0.095,19.354151 l 8e-5,18.353329 -0.47998,-0.01241 c -0.26398,-0.0068 -0.77405,-0.04339 -1.13347,-0.08125 z"
     id="path726" /><path
     style="fill:#231f20;fill-opacity:1;stroke-width:0.0914238"
     d="m 84.02453,38.559054 0.02453,-19.142351 0.209875,-0.987329 c 0.685278,-3.223786 2.060661,-5.703346 4.426867,-7.980821 2.384998,-2.29556 5.437472,-3.706795 8.779216,-4.0588525 0.465384,-0.049029 1.001276,-0.089856 1.19087,-0.090727 l 0.344716,-0.00158 -0.02662,19.0847165 c -0.02484,17.812126 -0.03738,19.13813 -0.187999,19.885749 -0.770218,3.823062 -2.659763,6.941642 -5.59036,9.226556 -2.424745,1.890512 -5.131977,2.910443 -8.348282,3.145158 L 84,57.701408 Z"
     id="path722" /><path
     style="fill:#231f20;stroke-width:0.0197266;fill-opacity:1"
     d="M 73.418367,34.469279 V 32.438556 H 71.459184 69.5 v -0.49576 -0.495762 h 1.959184 1.959183 V 29.473514 27.5 H 74 74.581633 v 1.973514 1.97352 H 76.540817 78.5 v 0.495762 0.49576 H 76.540817 74.581633 V 34.469279 36.5 H 74 73.418367 Z"
     id="path1837" /></svg>
